<?xml version="1.0" encoding="UTF-8" standalone="no"?>
<!DOCTYPE svg PUBLIC "-//W3C//DTD SVG 1.1//EN"
 "http://www.w3.org/Graphics/SVG/1.1/DTD/svg11.dtd">
<!-- Generated by graphviz version 2.50.0 (20211204.2007)
 -->
<!-- Title: Sequências binárias que começam e acabam com o mesmo símbolo Pages: 1 -->
<svg width="301pt" height="187pt"
 viewBox="0.00 0.00 301.00 187.00" xmlns="http://www.w3.org/2000/svg" xmlns:xlink="http://www.w3.org/1999/xlink">
<g id="graph0" class="graph" transform="scale(1 1) rotate(0) translate(4 183)">
<title>Sequências binárias que começam e acabam com o mesmo símbolo</title>
<polygon fill="white" stroke="transparent" points="-4,4 -4,-183 297,-183 297,4 -4,4"/>
<!-- Start -->
<g id="node1" class="node">
<title>Start</title>
</g>
<!-- A -->
<g id="node2" class="node">
<title>A</title>
<ellipse fill="none" stroke="deeppink" cx="109" cy="-64" rx="18" ry="18"/>
<text text-anchor="middle" x="109" y="-60.3" font-family="Times New Roman,serif" font-size="14.00">A</text>
</g>
<!-- Start&#45;&gt;A -->
<g id="edge1" class="edge">
<title>Start&#45;&gt;A</title>
<path fill="none" stroke="deeppink" d="M54.19,-64C62.65,-64 72.05,-64 80.6,-64"/>
<polygon fill="deeppink" stroke="deeppink" points="90.83,-64 80.83,-68.5 85.83,-64 80.83,-64 80.83,-64 80.83,-64 85.83,-64 80.83,-59.5 90.83,-64 90.83,-64"/>
</g>
<!-- D -->
<g id="node3" class="node">
<title>D</title>
<ellipse fill="none" stroke="deeppink" cx="188" cy="-108" rx="18" ry="18"/>
<text text-anchor="middle" x="188" y="-104.3" font-family="Times New Roman,serif" font-size="14.00">D</text>
</g>
<!-- A&#45;&gt;D -->
<g id="edge3" class="edge">
<title>A&#45;&gt;D</title>
<path fill="none" stroke="deeppink" d="M125.21,-72.69C136.04,-78.88 150.8,-87.32 163.18,-94.39"/>
<polygon fill="deeppink" stroke="deeppink" points="172.08,-99.47 161.17,-98.42 167.74,-96.99 163.4,-94.51 163.4,-94.51 163.4,-94.51 167.74,-96.99 165.63,-90.61 172.08,-99.47 172.08,-99.47"/>
<text text-anchor="middle" x="148.5" y="-90.8" font-family="Times New Roman,serif" font-size="14.00">1</text>
</g>
<!-- B -->
<g id="node4" class="node">
<title>B</title>
<ellipse fill="none" stroke="deeppink" cx="188" cy="-21" rx="18" ry="18"/>
<text text-anchor="middle" x="188" y="-17.3" font-family="Times New Roman,serif" font-size="14.00">B</text>
</g>
<!-- A&#45;&gt;B -->
<g id="edge2" class="edge">
<title>A&#45;&gt;B</title>
<path fill="none" stroke="deeppink" d="M125.21,-55.5C135.97,-49.5 150.61,-41.32 162.94,-34.43"/>
<polygon fill="deeppink" stroke="deeppink" points="171.82,-29.48 165.28,-38.28 167.45,-31.92 163.09,-34.35 163.09,-34.35 163.09,-34.35 167.45,-31.92 160.89,-30.42 171.82,-29.48 171.82,-29.48"/>
<text text-anchor="middle" x="148.5" y="-46.8" font-family="Times New Roman,serif" font-size="14.00">0</text>
</g>
<!-- D&#45;&gt;D -->
<g id="edge8" class="edge">
<title>D&#45;&gt;D</title>
<path fill="none" stroke="deeppink" d="M181.27,-125.04C179.89,-134.86 182.14,-144 188,-144 191.66,-144 193.92,-140.43 194.75,-135.35"/>
<polygon fill="deeppink" stroke="deeppink" points="194.73,-125.04 199.25,-135.03 194.74,-130.04 194.75,-135.04 194.75,-135.04 194.75,-135.04 194.74,-130.04 190.25,-135.05 194.73,-125.04 194.73,-125.04"/>
<text text-anchor="middle" x="188" y="-147.8" font-family="Times New Roman,serif" font-size="14.00">0</text>
</g>
<!-- E -->
<g id="node6" class="node">
<title>E</title>
<ellipse fill="none" stroke="deeppink" cx="271" cy="-124" rx="18" ry="18"/>
<ellipse fill="none" stroke="deeppink" cx="271" cy="-124" rx="22" ry="22"/>
<text text-anchor="middle" x="271" y="-120.3" font-family="Times New Roman,serif" font-size="14.00">E</text>
</g>
<!-- D&#45;&gt;E -->
<g id="edge9" class="edge">
<title>D&#45;&gt;E</title>
<path fill="none" stroke="deeppink" d="M205.78,-111.32C215.43,-113.22 227.86,-115.68 239.2,-117.92"/>
<polygon fill="deeppink" stroke="deeppink" points="249.21,-119.89 238.52,-122.37 244.3,-118.92 239.4,-117.95 239.4,-117.95 239.4,-117.95 244.3,-118.92 240.27,-113.54 249.21,-119.89 249.21,-119.89"/>
<text text-anchor="middle" x="227.5" y="-119.8" font-family="Times New Roman,serif" font-size="14.00">1</text>
</g>
<!-- B&#45;&gt;B -->
<g id="edge5" class="edge">
<title>B&#45;&gt;B</title>
<path fill="none" stroke="deeppink" d="M181.27,-38.04C179.89,-47.86 182.14,-57 188,-57 191.66,-57 193.92,-53.43 194.75,-48.35"/>
<polygon fill="deeppink" stroke="deeppink" points="194.73,-38.04 199.25,-48.03 194.74,-43.04 194.75,-48.04 194.75,-48.04 194.75,-48.04 194.74,-43.04 190.25,-48.05 194.73,-38.04 194.73,-38.04"/>
<text text-anchor="middle" x="188" y="-60.8" font-family="Times New Roman,serif" font-size="14.00">1</text>
</g>
<!-- C -->
<g id="node5" class="node">
<title>C</title>
<ellipse fill="none" stroke="deeppink" cx="271" cy="-22" rx="18" ry="18"/>
<ellipse fill="none" stroke="deeppink" cx="271" cy="-22" rx="22" ry="22"/>
<text text-anchor="middle" x="271" y="-18.3" font-family="Times New Roman,serif" font-size="14.00">C</text>
</g>
<!-- B&#45;&gt;C -->
<g id="edge4" class="edge">
<title>B&#45;&gt;C</title>
<path fill="none" stroke="deeppink" d="M206.07,-22.76C211.77,-23.27 218.15,-23.75 224,-24 228.71,-24.2 233.69,-24.2 238.57,-24.09"/>
<polygon fill="deeppink" stroke="deeppink" points="248.93,-23.68 239.12,-28.57 243.94,-23.88 238.94,-24.07 238.94,-24.07 238.94,-24.07 243.94,-23.88 238.76,-19.58 248.93,-23.68 248.93,-23.68"/>
<text text-anchor="middle" x="227.5" y="-27.8" font-family="Times New Roman,serif" font-size="14.00">0</text>
</g>
<!-- C&#45;&gt;B -->
<g id="edge7" class="edge">
<title>C&#45;&gt;B</title>
<path fill="none" stroke="deeppink" d="M252,-10.21C243.64,-6.08 233.48,-2.94 224,-5 220.5,-5.76 216.93,-6.91 213.47,-8.24"/>
<polygon fill="deeppink" stroke="deeppink" points="204.18,-12.34 211.52,-4.19 208.76,-10.32 213.33,-8.3 213.33,-8.3 213.33,-8.3 208.76,-10.32 215.15,-12.42 204.18,-12.34 204.18,-12.34"/>
<text text-anchor="middle" x="227.5" y="-8.8" font-family="Times New Roman,serif" font-size="14.00">1</text>
</g>
<!-- C&#45;&gt;C -->
<g id="edge6" class="edge">
<title>C&#45;&gt;C</title>
<path fill="none" stroke="deeppink" d="M263.32,-42.99C262.37,-53.09 264.93,-62 271,-62 274.89,-62 277.34,-58.34 278.35,-53.06"/>
<polygon fill="deeppink" stroke="deeppink" points="278.68,-42.99 282.85,-53.14 278.52,-47.99 278.35,-52.99 278.35,-52.99 278.35,-52.99 278.52,-47.99 273.85,-52.83 278.68,-42.99 278.68,-42.99"/>
<text text-anchor="middle" x="271" y="-65.8" font-family="Times New Roman,serif" font-size="14.00">0</text>
</g>
<!-- E&#45;&gt;D -->
<g id="edge10" class="edge">
<title>E&#45;&gt;D</title>
<path fill="none" stroke="deeppink" d="M254.18,-109.21C247.54,-103.97 239.41,-98.71 231,-96 225.41,-94.2 219.35,-94.59 213.62,-96.01"/>
<polygon fill="deeppink" stroke="deeppink" points="203.84,-99.42 211.8,-91.88 208.56,-97.77 213.29,-96.13 213.29,-96.13 213.29,-96.13 208.56,-97.77 214.77,-100.37 203.84,-99.42 203.84,-99.42"/>
<text text-anchor="middle" x="227.5" y="-99.8" font-family="Times New Roman,serif" font-size="14.00">0</text>
</g>
<!-- E&#45;&gt;E -->
<g id="edge11" class="edge">
<title>E&#45;&gt;E</title>
<path fill="none" stroke="deeppink" d="M263.32,-144.99C262.37,-155.09 264.93,-164 271,-164 274.89,-164 277.34,-160.34 278.35,-155.06"/>
<polygon fill="deeppink" stroke="deeppink" points="278.68,-144.99 282.85,-155.14 278.52,-149.99 278.35,-154.99 278.35,-154.99 278.35,-154.99 278.52,-149.99 273.85,-154.83 278.68,-144.99 278.68,-144.99"/>
<text text-anchor="middle" x="271" y="-167.8" font-family="Times New Roman,serif" font-size="14.00">1</text>
</g>
</g>
</svg>
