<?xml version="1.0" encoding="UTF-8" standalone="no"?>
<!DOCTYPE svg PUBLIC "-//W3C//DTD SVG 1.1//EN"
 "http://www.w3.org/Graphics/SVG/1.1/DTD/svg11.dtd">
<!-- Generated by graphviz version 2.50.0 (20211204.2007)
 -->
<!-- Title: Validador de código postal Pages: 1 -->
<svg width="852pt" height="956pt"
 viewBox="0.00 0.00 852.00 955.85" xmlns="http://www.w3.org/2000/svg" xmlns:xlink="http://www.w3.org/1999/xlink">
<g id="graph0" class="graph" transform="scale(1 1) rotate(0) translate(4 951.85)">
<title>Validador de código postal</title>
<polygon fill="white" stroke="transparent" points="-4,4 -4,-951.85 848,-951.85 848,4 -4,4"/>
<!-- Start -->
<g id="node1" class="node">
<title>Start</title>
</g>
<!-- A -->
<g id="node6" class="node">
<title>A</title>
<ellipse fill="none" stroke="deeppink" cx="109" cy="-747.85" rx="18" ry="18"/>
<text text-anchor="middle" x="109" y="-744.15" font-family="Times New Roman,serif" font-size="14.00">A</text>
</g>
<!-- Start&#45;&gt;A -->
<g id="edge1" class="edge">
<title>Start&#45;&gt;A</title>
<path fill="none" stroke="deeppink" d="M54.19,-747.85C62.65,-747.85 72.05,-747.85 80.6,-747.85"/>
<polygon fill="deeppink" stroke="deeppink" points="90.83,-747.85 80.83,-752.35 85.83,-747.85 80.83,-747.85 80.83,-747.85 80.83,-747.85 85.83,-747.85 80.83,-743.35 90.83,-747.85 90.83,-747.85"/>
</g>
<!-- H -->
<g id="node2" class="node">
<title>H</title>
<ellipse fill="none" stroke="deeppink" cx="660" cy="-149.85" rx="18" ry="18"/>
<text text-anchor="middle" x="660" y="-146.15" font-family="Times New Roman,serif" font-size="14.00">H</text>
</g>
<!-- L -->
<g id="node3" class="node">
<title>L</title>
<ellipse fill="none" stroke="deeppink" cx="826" cy="-404.85" rx="18" ry="18"/>
<text text-anchor="middle" x="826" y="-401.15" font-family="Times New Roman,serif" font-size="14.00">L</text>
</g>
<!-- H&#45;&gt;L -->
<g id="edge79" class="edge">
<title>H&#45;&gt;L</title>
<path fill="none" stroke="deeppink" d="M660.81,-168.16C661.38,-198.85 666.43,-261.36 696,-302.85 716.97,-332.28 736.61,-323.5 765,-345.85 779.88,-357.57 795.07,-372.55 806.44,-384.48"/>
<polygon fill="deeppink" stroke="deeppink" points="813.33,-391.81 803.2,-387.6 809.9,-388.17 806.48,-384.52 806.48,-384.52 806.48,-384.52 809.9,-388.17 809.77,-381.44 813.33,-391.81 813.33,-391.81"/>
<text text-anchor="middle" x="743" y="-349.65" font-family="Times New Roman,serif" font-size="14.00">&#45;</text>
</g>
<!-- I -->
<g id="node11" class="node">
<title>I</title>
<ellipse fill="none" stroke="deeppink" cx="743" cy="-147.85" rx="18" ry="18"/>
<ellipse fill="none" stroke="deeppink" cx="743" cy="-147.85" rx="22" ry="22"/>
<text text-anchor="middle" x="743" y="-144.15" font-family="Times New Roman,serif" font-size="14.00">I</text>
</g>
<!-- H&#45;&gt;I -->
<g id="edge80" class="edge">
<title>H&#45;&gt;I</title>
<path fill="none" stroke="deeppink" d="M660.7,-167.97C660.62,-210.04 664.43,-308.68 703,-279.85 733.48,-257.08 741.13,-211.57 742.56,-180.42"/>
<polygon fill="deeppink" stroke="deeppink" points="742.83,-170.06 747.07,-180.17 742.7,-175.06 742.57,-180.06 742.57,-180.06 742.57,-180.06 742.7,-175.06 738.07,-179.94 742.83,-170.06 742.83,-170.06"/>
<text text-anchor="middle" x="699.5" y="-287.65" font-family="Times New Roman,serif" font-size="14.00">0</text>
</g>
<!-- H&#45;&gt;I -->
<g id="edge81" class="edge">
<title>H&#45;&gt;I</title>
<path fill="none" stroke="deeppink" d="M662.31,-167.74C665.36,-199.47 674.96,-260.58 703,-241.85 723.58,-228.11 733.32,-201.26 737.91,-179.77"/>
<polygon fill="deeppink" stroke="deeppink" points="739.78,-169.73 742.38,-180.38 738.87,-174.64 737.95,-179.56 737.95,-179.56 737.95,-179.56 738.87,-174.64 733.53,-178.73 739.78,-169.73 739.78,-169.73"/>
<text text-anchor="middle" x="699.5" y="-249.65" font-family="Times New Roman,serif" font-size="14.00">1</text>
</g>
<!-- H&#45;&gt;I -->
<g id="edge82" class="edge">
<title>H&#45;&gt;I</title>
<path fill="none" stroke="deeppink" d="M665.98,-167.21C672.45,-186.32 685.1,-213.2 703,-203.85 714.13,-198.04 722.73,-187.45 728.98,-177.03"/>
<polygon fill="deeppink" stroke="deeppink" points="733.88,-168.04 733.05,-178.97 731.49,-172.43 729.1,-176.82 729.1,-176.82 729.1,-176.82 731.49,-172.43 725.14,-174.66 733.88,-168.04 733.88,-168.04"/>
<text text-anchor="middle" x="699.5" y="-209.65" font-family="Times New Roman,serif" font-size="14.00">2</text>
</g>
<!-- H&#45;&gt;I -->
<g id="edge83" class="edge">
<title>H&#45;&gt;I</title>
<path fill="none" stroke="deeppink" d="M675.45,-159.89C683.4,-164.24 693.55,-167.93 703,-165.85 706.71,-165.04 710.5,-163.83 714.17,-162.43"/>
<polygon fill="deeppink" stroke="deeppink" points="723.53,-158.36 716.16,-166.47 718.95,-160.35 714.36,-162.34 714.36,-162.34 714.36,-162.34 718.95,-160.35 712.57,-158.22 723.53,-158.36 723.53,-158.36"/>
<text text-anchor="middle" x="699.5" y="-170.65" font-family="Times New Roman,serif" font-size="14.00">3</text>
</g>
<!-- H&#45;&gt;I -->
<g id="edge84" class="edge">
<title>H&#45;&gt;I</title>
<path fill="none" stroke="deeppink" d="M678.07,-148.1C683.77,-147.59 690.15,-147.1 696,-146.85 700.71,-146.65 705.68,-146.6 710.56,-146.63"/>
<polygon fill="deeppink" stroke="deeppink" points="720.93,-146.83 710.84,-151.14 715.93,-146.73 710.93,-146.64 710.93,-146.64 710.93,-146.64 715.93,-146.73 711.01,-142.14 720.93,-146.83 720.93,-146.83"/>
<text text-anchor="middle" x="699.5" y="-150.65" font-family="Times New Roman,serif" font-size="14.00">4</text>
</g>
<!-- H&#45;&gt;I -->
<g id="edge85" class="edge">
<title>H&#45;&gt;I</title>
<path fill="none" stroke="deeppink" d="M674.43,-138.92C680.61,-134.57 688.28,-130.08 696,-127.85 702.75,-125.91 709.81,-127.17 716.31,-129.82"/>
<polygon fill="deeppink" stroke="deeppink" points="725.35,-134.47 714.4,-133.89 720.9,-132.18 716.46,-129.89 716.46,-129.89 716.46,-129.89 720.9,-132.18 718.52,-125.89 725.35,-134.47 725.35,-134.47"/>
<text text-anchor="middle" x="699.5" y="-131.65" font-family="Times New Roman,serif" font-size="14.00">5</text>
</g>
<!-- H&#45;&gt;I -->
<g id="edge86" class="edge">
<title>H&#45;&gt;I</title>
<path fill="none" stroke="deeppink" d="M669.51,-134.37C675.56,-125.09 684.61,-114.11 696,-108.85 706.95,-103.8 717.36,-111.2 725.5,-120.86"/>
<polygon fill="deeppink" stroke="deeppink" points="731.51,-128.9 721.92,-123.58 728.52,-124.89 725.52,-120.88 725.52,-120.88 725.52,-120.88 728.52,-124.89 729.13,-118.19 731.51,-128.9 731.51,-128.9"/>
<text text-anchor="middle" x="699.5" y="-112.65" font-family="Times New Roman,serif" font-size="14.00">6</text>
</g>
<!-- H&#45;&gt;I -->
<g id="edge87" class="edge">
<title>H&#45;&gt;I</title>
<path fill="none" stroke="deeppink" d="M665.59,-132.72C670.49,-118.18 679.83,-98.22 696,-88.85 711.86,-79.67 724.22,-98.55 732.11,-117.34"/>
<polygon fill="deeppink" stroke="deeppink" points="735.72,-126.72 727.93,-119 733.93,-122.05 732.13,-117.39 732.13,-117.39 732.13,-117.39 733.93,-122.05 736.33,-115.77 735.72,-126.72 735.72,-126.72"/>
<text text-anchor="middle" x="699.5" y="-92.65" font-family="Times New Roman,serif" font-size="14.00">7</text>
</g>
<!-- H&#45;&gt;I -->
<g id="edge88" class="edge">
<title>H&#45;&gt;I</title>
<path fill="none" stroke="deeppink" d="M662.99,-131.83C666.21,-112.29 674.56,-82.02 696,-67.85 717.31,-53.78 729.92,-88.26 736.4,-116.28"/>
<polygon fill="deeppink" stroke="deeppink" points="738.51,-126.21 732.03,-117.36 737.47,-121.32 736.43,-116.43 736.43,-116.43 736.43,-116.43 737.47,-121.32 740.83,-115.49 738.51,-126.21 738.51,-126.21"/>
<text text-anchor="middle" x="699.5" y="-71.65" font-family="Times New Roman,serif" font-size="14.00">8</text>
</g>
<!-- H&#45;&gt;I -->
<g id="edge89" class="edge">
<title>H&#45;&gt;I</title>
<path fill="none" stroke="deeppink" d="M661.2,-131.64C662.57,-107.64 668.98,-66.21 696,-46.85 722.8,-27.66 734.33,-79.24 739.02,-115.57"/>
<polygon fill="deeppink" stroke="deeppink" points="740.22,-125.8 734.59,-116.39 739.64,-120.83 739.06,-115.86 739.06,-115.86 739.06,-115.86 739.64,-120.83 743.53,-115.34 740.22,-125.8 740.22,-125.8"/>
<text text-anchor="middle" x="699.5" y="-50.65" font-family="Times New Roman,serif" font-size="14.00">9</text>
</g>
<!-- L&#45;&gt;L -->
<g id="edge101" class="edge">
<title>L&#45;&gt;L</title>
<path fill="none" stroke="deeppink" d="M824.55,-423.01C824.33,-432.39 824.81,-440.85 826,-440.85 826.72,-440.85 827.19,-437.71 827.39,-433.13"/>
<polygon fill="deeppink" stroke="deeppink" points="827.45,-423.01 831.89,-433.03 827.42,-428.01 827.39,-433.01 827.39,-433.01 827.39,-433.01 827.42,-428.01 822.89,-432.98 827.45,-423.01 827.45,-423.01"/>
<text text-anchor="middle" x="826" y="-444.65" font-family="Times New Roman,serif" font-size="14.00">&#45;</text>
</g>
<!-- L&#45;&gt;L -->
<g id="edge102" class="edge">
<title>L&#45;&gt;L</title>
<path fill="none" stroke="deeppink" d="M823.59,-422.83C822.31,-440.05 823.11,-458.85 826,-458.85 828.33,-458.85 829.3,-446.68 828.92,-432.95"/>
<polygon fill="deeppink" stroke="deeppink" points="828.41,-422.83 833.41,-432.59 828.66,-427.83 828.91,-432.82 828.91,-432.82 828.91,-432.82 828.66,-427.83 824.42,-433.05 828.41,-422.83 828.41,-422.83"/>
<text text-anchor="middle" x="826" y="-462.65" font-family="Times New Roman,serif" font-size="14.00">0</text>
</g>
<!-- L&#45;&gt;L -->
<g id="edge103" class="edge">
<title>L&#45;&gt;L</title>
<path fill="none" stroke="deeppink" d="M822.96,-422.93C820.28,-447.26 821.29,-476.85 826,-476.85 830.07,-476.85 831.38,-454.8 829.93,-433.12"/>
<polygon fill="deeppink" stroke="deeppink" points="829.04,-422.93 834.39,-432.5 829.47,-427.91 829.91,-432.89 829.91,-432.89 829.91,-432.89 829.47,-427.91 825.43,-433.29 829.04,-422.93 829.04,-422.93"/>
<text text-anchor="middle" x="826" y="-480.65" font-family="Times New Roman,serif" font-size="14.00">1</text>
</g>
<!-- L&#45;&gt;L -->
<g id="edge104" class="edge">
<title>L&#45;&gt;L</title>
<path fill="none" stroke="deeppink" d="M822.52,-422.97C818.25,-454.09 819.41,-494.85 826,-494.85 831.9,-494.85 833.45,-462.24 830.65,-433.08"/>
<polygon fill="deeppink" stroke="deeppink" points="829.48,-422.97 835.1,-432.38 830.05,-427.93 830.63,-432.9 830.63,-432.9 830.63,-432.9 830.05,-427.93 826.16,-433.42 829.48,-422.97 829.48,-422.97"/>
<text text-anchor="middle" x="826" y="-498.65" font-family="Times New Roman,serif" font-size="14.00">2</text>
</g>
<!-- L&#45;&gt;L -->
<g id="edge105" class="edge">
<title>L&#45;&gt;L</title>
<path fill="none" stroke="deeppink" d="M822.25,-422.65C816.21,-460.4 817.46,-512.85 826,-512.85 833.8,-512.85 835.52,-469.03 831.15,-432.67"/>
<polygon fill="deeppink" stroke="deeppink" points="829.75,-422.65 835.59,-431.94 830.44,-427.61 831.13,-432.56 831.13,-432.56 831.13,-432.56 830.44,-427.61 826.67,-433.18 829.75,-422.65 829.75,-422.65"/>
<text text-anchor="middle" x="826" y="-516.65" font-family="Times New Roman,serif" font-size="14.00">3</text>
</g>
<!-- L&#45;&gt;L -->
<g id="edge106" class="edge">
<title>L&#45;&gt;L</title>
<path fill="none" stroke="deeppink" d="M822.01,-422.62C814.19,-466.83 815.52,-530.85 826,-530.85 835.7,-530.85 837.56,-475.98 831.58,-432.76"/>
<polygon fill="deeppink" stroke="deeppink" points="829.99,-422.62 835.98,-431.81 830.76,-427.56 831.54,-432.5 831.54,-432.5 831.54,-432.5 830.76,-427.56 827.09,-433.2 829.99,-422.62 829.99,-422.62"/>
<text text-anchor="middle" x="826" y="-534.65" font-family="Times New Roman,serif" font-size="14.00">4</text>
</g>
<!-- L&#45;&gt;L -->
<g id="edge107" class="edge">
<title>L&#45;&gt;L</title>
<path fill="none" stroke="deeppink" d="M821.84,-422.47C812.17,-473.04 813.56,-548.85 826,-548.85 837.64,-548.85 839.6,-482.5 831.89,-432.54"/>
<polygon fill="deeppink" stroke="deeppink" points="830.16,-422.47 836.29,-431.56 831,-427.4 831.85,-432.33 831.85,-432.33 831.85,-432.33 831,-427.4 827.42,-433.09 830.16,-422.47 830.16,-422.47"/>
<text text-anchor="middle" x="826" y="-552.65" font-family="Times New Roman,serif" font-size="14.00">5</text>
</g>
<!-- L&#45;&gt;L -->
<g id="edge108" class="edge">
<title>L&#45;&gt;L</title>
<path fill="none" stroke="deeppink" d="M821.7,-422.44C810.16,-479.3 811.59,-566.85 826,-566.85 839.59,-566.85 841.64,-488.94 832.14,-432.37"/>
<polygon fill="deeppink" stroke="deeppink" points="830.3,-422.44 836.55,-431.45 831.21,-427.36 832.12,-432.27 832.12,-432.27 832.12,-432.27 831.21,-427.36 827.7,-433.09 830.3,-422.44 830.3,-422.44"/>
<text text-anchor="middle" x="826" y="-570.65" font-family="Times New Roman,serif" font-size="14.00">6</text>
</g>
<!-- L&#45;&gt;L -->
<g id="edge109" class="edge">
<title>L&#45;&gt;L</title>
<path fill="none" stroke="deeppink" d="M821.58,-422.35C808.15,-485.45 809.62,-584.85 826,-584.85 841.55,-584.85 843.67,-495.29 832.35,-432.22"/>
<polygon fill="deeppink" stroke="deeppink" points="830.42,-422.35 836.75,-431.3 831.38,-427.26 832.34,-432.16 832.34,-432.16 832.34,-432.16 831.38,-427.26 827.92,-433.03 830.42,-422.35 830.42,-422.35"/>
<text text-anchor="middle" x="826" y="-588.65" font-family="Times New Roman,serif" font-size="14.00">7</text>
</g>
<!-- L&#45;&gt;L -->
<g id="edge110" class="edge">
<title>L&#45;&gt;L</title>
<path fill="none" stroke="deeppink" d="M821.48,-422.32C806.13,-491.62 807.64,-602.85 826,-602.85 843.5,-602.85 845.69,-501.81 832.57,-432.33"/>
<polygon fill="deeppink" stroke="deeppink" points="830.52,-422.32 836.93,-431.22 831.52,-427.22 832.52,-432.12 832.52,-432.12 832.52,-432.12 831.52,-427.22 828.11,-433.02 830.52,-422.32 830.52,-422.32"/>
<text text-anchor="middle" x="826" y="-606.65" font-family="Times New Roman,serif" font-size="14.00">8</text>
</g>
<!-- L&#45;&gt;L -->
<g id="edge111" class="edge">
<title>L&#45;&gt;L</title>
<path fill="none" stroke="deeppink" d="M821.36,-422.47C804.13,-497.96 805.68,-620.85 826,-620.85 845.45,-620.85 847.7,-508.29 832.76,-432.45"/>
<polygon fill="deeppink" stroke="deeppink" points="830.64,-422.47 837.12,-431.31 831.68,-427.36 832.72,-432.25 832.72,-432.25 832.72,-432.25 831.68,-427.36 828.32,-433.18 830.64,-422.47 830.64,-422.47"/>
<text text-anchor="middle" x="826" y="-624.65" font-family="Times New Roman,serif" font-size="14.00">9</text>
</g>
<!-- B -->
<g id="node4" class="node">
<title>B</title>
<ellipse fill="none" stroke="deeppink" cx="188" cy="-709.85" rx="18" ry="18"/>
<text text-anchor="middle" x="188" y="-706.15" font-family="Times New Roman,serif" font-size="14.00">B</text>
</g>
<!-- B&#45;&gt;L -->
<g id="edge13" class="edge">
<title>B&#45;&gt;L</title>
<path fill="none" stroke="deeppink" d="M188.65,-728.1C188.83,-773.87 196.15,-889.85 266,-889.85 266,-889.85 266,-889.85 744,-889.85 762.34,-889.85 785.47,-815.46 790,-796.85 822.42,-663.82 825.53,-498.84 825.35,-433.46"/>
<polygon fill="deeppink" stroke="deeppink" points="825.29,-423.14 829.85,-433.12 825.32,-428.14 825.35,-433.14 825.35,-433.14 825.35,-433.14 825.32,-428.14 820.85,-433.17 825.29,-423.14 825.29,-423.14"/>
<text text-anchor="middle" x="502" y="-893.65" font-family="Times New Roman,serif" font-size="14.00">&#45;</text>
</g>
<!-- C -->
<g id="node9" class="node">
<title>C</title>
<ellipse fill="none" stroke="deeppink" cx="267" cy="-669.85" rx="18" ry="18"/>
<text text-anchor="middle" x="267" y="-666.15" font-family="Times New Roman,serif" font-size="14.00">C</text>
</g>
<!-- B&#45;&gt;C -->
<g id="edge14" class="edge">
<title>B&#45;&gt;C</title>
<path fill="none" stroke="deeppink" d="M188.92,-727.89C189.34,-769.77 194.16,-867.81 231,-837.85 252.31,-820.53 261.08,-741.02 264.32,-697.88"/>
<polygon fill="deeppink" stroke="deeppink" points="265.03,-687.76 268.82,-698.05 264.68,-692.74 264.33,-697.73 264.33,-697.73 264.33,-697.73 264.68,-692.74 259.84,-697.42 265.03,-687.76 265.03,-687.76"/>
<text text-anchor="middle" x="227.5" y="-844.65" font-family="Times New Roman,serif" font-size="14.00">0</text>
</g>
<!-- B&#45;&gt;C -->
<g id="edge15" class="edge">
<title>B&#45;&gt;C</title>
<path fill="none" stroke="deeppink" d="M190.64,-727.69C194.24,-759.3 204.72,-819.99 231,-799.85 247.14,-787.49 257.51,-731.87 262.5,-697.52"/>
<polygon fill="deeppink" stroke="deeppink" points="263.87,-687.61 266.95,-698.13 263.18,-692.56 262.5,-697.51 262.5,-697.51 262.5,-697.51 263.18,-692.56 258.04,-696.89 263.87,-687.61 263.87,-687.61"/>
<text text-anchor="middle" x="227.5" y="-806.65" font-family="Times New Roman,serif" font-size="14.00">1</text>
</g>
<!-- B&#45;&gt;C -->
<g id="edge16" class="edge">
<title>B&#45;&gt;C</title>
<path fill="none" stroke="deeppink" d="M194.41,-726.97C201.41,-746.13 214.66,-773.12 231,-761.85 251.58,-747.66 260.07,-719.65 263.56,-698.25"/>
<polygon fill="deeppink" stroke="deeppink" points="264.94,-688.06 268.06,-698.57 264.27,-693.02 263.6,-697.97 263.6,-697.97 263.6,-697.97 264.27,-693.02 259.14,-697.37 264.94,-688.06 264.94,-688.06"/>
<text text-anchor="middle" x="227.5" y="-767.65" font-family="Times New Roman,serif" font-size="14.00">2</text>
</g>
<!-- B&#45;&gt;C -->
<g id="edge17" class="edge">
<title>B&#45;&gt;C</title>
<path fill="none" stroke="deeppink" d="M203.13,-720.16C211.53,-724.94 222.22,-728.63 231,-723.85 242.16,-717.79 250.31,-706.46 255.92,-695.74"/>
<polygon fill="deeppink" stroke="deeppink" points="260.22,-686.62 260.03,-697.59 258.09,-691.15 255.96,-695.67 255.96,-695.67 255.96,-695.67 258.09,-691.15 251.89,-693.75 260.22,-686.62 260.22,-686.62"/>
<text text-anchor="middle" x="227.5" y="-729.65" font-family="Times New Roman,serif" font-size="14.00">3</text>
</g>
<!-- B&#45;&gt;C -->
<g id="edge18" class="edge">
<title>B&#45;&gt;C</title>
<path fill="none" stroke="deeppink" d="M204.21,-701.95C214.97,-696.36 229.61,-688.76 241.94,-682.35"/>
<polygon fill="deeppink" stroke="deeppink" points="250.82,-677.74 244.02,-686.34 246.38,-680.05 241.94,-682.35 241.94,-682.35 241.94,-682.35 246.38,-680.05 239.87,-678.36 250.82,-677.74 250.82,-677.74"/>
<text text-anchor="middle" x="227.5" y="-694.65" font-family="Times New Roman,serif" font-size="14.00">4</text>
</g>
<!-- B&#45;&gt;C -->
<g id="edge19" class="edge">
<title>B&#45;&gt;C</title>
<path fill="none" stroke="deeppink" d="M197.51,-694.37C203.56,-685.09 212.61,-674.11 224,-668.85 228.64,-666.71 233.89,-665.82 239.06,-665.65"/>
<polygon fill="deeppink" stroke="deeppink" points="249.36,-666.15 239.15,-670.16 244.36,-665.91 239.37,-665.67 239.37,-665.67 239.37,-665.67 244.36,-665.91 239.59,-661.17 249.36,-666.15 249.36,-666.15"/>
<text text-anchor="middle" x="227.5" y="-672.65" font-family="Times New Roman,serif" font-size="14.00">5</text>
</g>
<!-- B&#45;&gt;C -->
<g id="edge20" class="edge">
<title>B&#45;&gt;C</title>
<path fill="none" stroke="deeppink" d="M193.33,-692.47C198.1,-677.44 207.39,-656.63 224,-646.85 231.31,-642.55 239.47,-645.34 246.64,-650.24"/>
<polygon fill="deeppink" stroke="deeppink" points="254.48,-656.67 243.9,-653.81 250.62,-653.5 246.75,-650.33 246.75,-650.33 246.75,-650.33 250.62,-653.5 249.6,-646.85 254.48,-656.67 254.48,-656.67"/>
<text text-anchor="middle" x="227.5" y="-650.65" font-family="Times New Roman,serif" font-size="14.00">6</text>
</g>
<!-- B&#45;&gt;C -->
<g id="edge21" class="edge">
<title>B&#45;&gt;C</title>
<path fill="none" stroke="deeppink" d="M190.67,-691.92C193.61,-671.72 201.72,-639.77 224,-624.85 236.09,-616.76 247.2,-630.01 254.96,-644.18"/>
<polygon fill="deeppink" stroke="deeppink" points="259.54,-653.42 251.06,-646.46 257.32,-648.94 255.09,-644.46 255.09,-644.46 255.09,-644.46 257.32,-648.94 259.12,-642.46 259.54,-653.42 259.54,-653.42"/>
<text text-anchor="middle" x="227.5" y="-628.65" font-family="Times New Roman,serif" font-size="14.00">7</text>
</g>
<!-- B&#45;&gt;C -->
<g id="edge22" class="edge">
<title>B&#45;&gt;C</title>
<path fill="none" stroke="deeppink" d="M188.92,-691.8C189.92,-667.03 195.83,-623.28 224,-602.85 241.6,-590.09 253.5,-618.76 260.01,-642.49"/>
<polygon fill="deeppink" stroke="deeppink" points="262.48,-652.22 255.66,-643.63 261.25,-647.37 260.02,-642.52 260.02,-642.52 260.02,-642.52 261.25,-647.37 264.39,-641.42 262.48,-652.22 262.48,-652.22"/>
<text text-anchor="middle" x="227.5" y="-606.65" font-family="Times New Roman,serif" font-size="14.00">8</text>
</g>
<!-- B&#45;&gt;C -->
<g id="edge23" class="edge">
<title>B&#45;&gt;C</title>
<path fill="none" stroke="deeppink" d="M191.18,-691.98C195.52,-659.84 206.35,-594.35 224,-580.85 247.29,-563.04 258.23,-609.1 262.91,-641.4"/>
<polygon fill="deeppink" stroke="deeppink" points="264.27,-651.72 258.5,-642.39 263.61,-646.76 262.96,-641.81 262.96,-641.81 262.96,-641.81 263.61,-646.76 267.42,-641.22 264.27,-651.72 264.27,-651.72"/>
<text text-anchor="middle" x="227.5" y="-584.65" font-family="Times New Roman,serif" font-size="14.00">9</text>
</g>
<!-- D -->
<g id="node5" class="node">
<title>D</title>
<ellipse fill="none" stroke="deeppink" cx="346" cy="-623.85" rx="18" ry="18"/>
<text text-anchor="middle" x="346" y="-620.15" font-family="Times New Roman,serif" font-size="14.00">D</text>
</g>
<!-- D&#45;&gt;L -->
<g id="edge35" class="edge">
<title>D&#45;&gt;L</title>
<path fill="none" stroke="deeppink" d="M346.77,-642.13C347.25,-687.35 355.3,-800.85 424,-800.85 424,-800.85 424,-800.85 744,-800.85 819.19,-800.85 825.26,-523.39 825.24,-432.97"/>
<polygon fill="deeppink" stroke="deeppink" points="825.21,-422.9 829.74,-432.89 825.22,-427.9 825.24,-432.9 825.24,-432.9 825.24,-432.9 825.22,-427.9 820.74,-432.91 825.21,-422.9 825.21,-422.9"/>
<text text-anchor="middle" x="581" y="-804.65" font-family="Times New Roman,serif" font-size="14.00">&#45;</text>
</g>
<!-- E -->
<g id="node10" class="node">
<title>E</title>
<ellipse fill="none" stroke="deeppink" cx="425" cy="-580.85" rx="18" ry="18"/>
<text text-anchor="middle" x="425" y="-577.15" font-family="Times New Roman,serif" font-size="14.00">E</text>
</g>
<!-- D&#45;&gt;E -->
<g id="edge36" class="edge">
<title>D&#45;&gt;E</title>
<path fill="none" stroke="deeppink" d="M347.03,-642.09C347.71,-683.34 353.12,-778.03 389,-748.85 410.31,-731.53 419.08,-652.02 422.32,-608.88"/>
<polygon fill="deeppink" stroke="deeppink" points="423.03,-598.76 426.82,-609.05 422.68,-603.74 422.33,-608.73 422.33,-608.73 422.33,-608.73 422.68,-603.74 417.84,-608.42 423.03,-598.76 423.03,-598.76"/>
<text text-anchor="middle" x="385.5" y="-755.65" font-family="Times New Roman,serif" font-size="14.00">0</text>
</g>
<!-- D&#45;&gt;E -->
<g id="edge37" class="edge">
<title>D&#45;&gt;E</title>
<path fill="none" stroke="deeppink" d="M348.89,-642.09C352.82,-672.93 363.71,-730.24 389,-710.85 405.14,-698.49 415.51,-642.87 420.5,-608.52"/>
<polygon fill="deeppink" stroke="deeppink" points="421.87,-598.61 424.95,-609.13 421.18,-603.56 420.5,-608.51 420.5,-608.51 420.5,-608.51 421.18,-603.56 416.04,-607.89 421.87,-598.61 421.87,-598.61"/>
<text text-anchor="middle" x="385.5" y="-717.65" font-family="Times New Roman,serif" font-size="14.00">1</text>
</g>
<!-- D&#45;&gt;E -->
<g id="edge38" class="edge">
<title>D&#45;&gt;E</title>
<path fill="none" stroke="deeppink" d="M352.85,-640.71C360.1,-658.81 373.41,-683.6 389,-672.85 409.58,-658.66 418.07,-630.65 421.56,-609.25"/>
<polygon fill="deeppink" stroke="deeppink" points="422.94,-599.06 426.06,-609.57 422.27,-604.02 421.6,-608.97 421.6,-608.97 421.6,-608.97 422.27,-604.02 417.14,-608.37 422.94,-599.06 422.94,-599.06"/>
<text text-anchor="middle" x="385.5" y="-678.65" font-family="Times New Roman,serif" font-size="14.00">2</text>
</g>
<!-- D&#45;&gt;E -->
<g id="edge39" class="edge">
<title>D&#45;&gt;E</title>
<path fill="none" stroke="deeppink" d="M361.64,-632.81C370.02,-636.71 380.52,-639.46 389,-634.85 400.16,-628.79 408.31,-617.46 413.92,-606.74"/>
<polygon fill="deeppink" stroke="deeppink" points="418.22,-597.62 418.03,-608.59 416.09,-602.15 413.96,-606.67 413.96,-606.67 413.96,-606.67 416.09,-602.15 409.89,-604.75 418.22,-597.62 418.22,-597.62"/>
<text text-anchor="middle" x="385.5" y="-640.65" font-family="Times New Roman,serif" font-size="14.00">3</text>
</g>
<!-- D&#45;&gt;E -->
<g id="edge40" class="edge">
<title>D&#45;&gt;E</title>
<path fill="none" stroke="deeppink" d="M362.21,-615.36C372.97,-609.35 387.61,-601.18 399.94,-594.29"/>
<polygon fill="deeppink" stroke="deeppink" points="408.82,-589.33 402.28,-598.14 404.45,-591.77 400.09,-594.21 400.09,-594.21 400.09,-594.21 404.45,-591.77 397.89,-590.28 408.82,-589.33 408.82,-589.33"/>
<text text-anchor="middle" x="385.5" y="-606.65" font-family="Times New Roman,serif" font-size="14.00">4</text>
</g>
<!-- D&#45;&gt;E -->
<g id="edge41" class="edge">
<title>D&#45;&gt;E</title>
<path fill="none" stroke="deeppink" d="M355.47,-608.1C361.49,-598.63 370.55,-587.39 382,-581.85 386.52,-579.67 391.65,-578.59 396.74,-578.17"/>
<polygon fill="deeppink" stroke="deeppink" points="406.89,-578.12 396.91,-582.67 401.89,-578.15 396.89,-578.17 396.89,-578.17 396.89,-578.17 401.89,-578.15 396.87,-573.67 406.89,-578.12 406.89,-578.12"/>
<text text-anchor="middle" x="385.5" y="-585.65" font-family="Times New Roman,serif" font-size="14.00">5</text>
</g>
<!-- D&#45;&gt;E -->
<g id="edge42" class="edge">
<title>D&#45;&gt;E</title>
<path fill="none" stroke="deeppink" d="M351.16,-606.5C355.85,-591.22 365.12,-569.87 382,-559.85 388.9,-555.76 396.71,-557.92 403.7,-562.13"/>
<polygon fill="deeppink" stroke="deeppink" points="411.99,-568.24 401.27,-565.93 407.97,-565.28 403.94,-562.31 403.94,-562.31 403.94,-562.31 407.97,-565.28 406.61,-558.69 411.99,-568.24 411.99,-568.24"/>
<text text-anchor="middle" x="385.5" y="-563.65" font-family="Times New Roman,serif" font-size="14.00">6</text>
</g>
<!-- D&#45;&gt;E -->
<g id="edge43" class="edge">
<title>D&#45;&gt;E</title>
<path fill="none" stroke="deeppink" d="M348.67,-605.92C351.61,-585.72 359.72,-553.77 382,-538.85 393.35,-531.26 404.19,-542.76 412.02,-555.64"/>
<polygon fill="deeppink" stroke="deeppink" points="416.93,-564.55 408.16,-557.96 414.52,-560.17 412.11,-555.79 412.11,-555.79 412.11,-555.79 414.52,-560.17 416.05,-553.62 416.93,-564.55 416.93,-564.55"/>
<text text-anchor="middle" x="385.5" y="-542.65" font-family="Times New Roman,serif" font-size="14.00">7</text>
</g>
<!-- D&#45;&gt;E -->
<g id="edge44" class="edge">
<title>D&#45;&gt;E</title>
<path fill="none" stroke="deeppink" d="M347,-605.54C348.11,-580.93 354.2,-537.95 382,-517.85 398.54,-505.9 410.46,-531.61 417.29,-553.7"/>
<polygon fill="deeppink" stroke="deeppink" points="420.06,-563.44 413,-555.06 418.69,-558.63 417.32,-553.83 417.32,-553.83 417.32,-553.83 418.69,-558.63 421.65,-552.59 420.06,-563.44 420.06,-563.44"/>
<text text-anchor="middle" x="385.5" y="-521.65" font-family="Times New Roman,serif" font-size="14.00">8</text>
</g>
<!-- D&#45;&gt;E -->
<g id="edge45" class="edge">
<title>D&#45;&gt;E</title>
<path fill="none" stroke="deeppink" d="M349.26,-606.01C353.69,-574.27 364.62,-510.09 382,-496.85 403.93,-480.15 415.21,-522.15 420.35,-552.6"/>
<polygon fill="deeppink" stroke="deeppink" points="421.91,-562.77 415.94,-553.57 421.15,-557.83 420.39,-552.88 420.39,-552.88 420.39,-552.88 421.15,-557.83 424.84,-552.2 421.91,-562.77 421.91,-562.77"/>
<text text-anchor="middle" x="385.5" y="-500.65" font-family="Times New Roman,serif" font-size="14.00">9</text>
</g>
<!-- A&#45;&gt;L -->
<g id="edge2" class="edge">
<title>A&#45;&gt;L</title>
<path fill="none" stroke="deeppink" d="M109.47,-765.93C109.12,-812.48 115.16,-932.85 187,-932.85 187,-932.85 187,-932.85 744,-932.85 775.12,-932.85 781.95,-863.76 790,-821.85 817.72,-677.57 823.49,-501 824.69,-433.21"/>
<polygon fill="deeppink" stroke="deeppink" points="824.85,-422.92 829.19,-432.99 824.77,-427.92 824.69,-432.92 824.69,-432.92 824.69,-432.92 824.77,-427.92 820.19,-432.85 824.85,-422.92 824.85,-422.92"/>
<text text-anchor="middle" x="463.5" y="-936.65" font-family="Times New Roman,serif" font-size="14.00">&#45;</text>
</g>
<!-- A&#45;&gt;B -->
<g id="edge3" class="edge">
<title>A&#45;&gt;B</title>
<path fill="none" stroke="deeppink" d="M109.85,-765.86C110.1,-808.2 114.55,-908.31 152,-877.85 173.31,-860.53 182.08,-781.02 185.32,-737.88"/>
<polygon fill="deeppink" stroke="deeppink" points="186.03,-727.76 189.82,-738.05 185.68,-732.74 185.33,-737.73 185.33,-737.73 185.33,-737.73 185.68,-732.74 180.84,-737.42 186.03,-727.76 186.03,-727.76"/>
<text text-anchor="middle" x="148.5" y="-884.65" font-family="Times New Roman,serif" font-size="14.00">0</text>
</g>
<!-- A&#45;&gt;B -->
<g id="edge4" class="edge">
<title>A&#45;&gt;B</title>
<path fill="none" stroke="deeppink" d="M111.55,-766.07C115,-798.36 125.24,-860.36 152,-839.85 168.14,-827.49 178.51,-771.87 183.5,-737.52"/>
<polygon fill="deeppink" stroke="deeppink" points="184.87,-727.61 187.95,-738.13 184.18,-732.56 183.5,-737.51 183.5,-737.51 183.5,-737.51 184.18,-732.56 179.04,-736.89 184.87,-727.61 184.87,-727.61"/>
<text text-anchor="middle" x="148.5" y="-846.65" font-family="Times New Roman,serif" font-size="14.00">1</text>
</g>
<!-- A&#45;&gt;B -->
<g id="edge5" class="edge">
<title>A&#45;&gt;B</title>
<path fill="none" stroke="deeppink" d="M115.05,-764.88C121.85,-784.76 135.08,-813.52 152,-801.85 172.58,-787.66 181.07,-759.65 184.56,-738.25"/>
<polygon fill="deeppink" stroke="deeppink" points="185.94,-728.06 189.06,-738.57 185.27,-733.02 184.6,-737.97 184.6,-737.97 184.6,-737.97 185.27,-733.02 180.14,-737.37 185.94,-728.06 185.94,-728.06"/>
<text text-anchor="middle" x="148.5" y="-807.65" font-family="Times New Roman,serif" font-size="14.00">2</text>
</g>
<!-- A&#45;&gt;B -->
<g id="edge6" class="edge">
<title>A&#45;&gt;B</title>
<path fill="none" stroke="deeppink" d="M123.65,-758.94C132.07,-764.37 142.95,-768.77 152,-763.85 163.16,-757.79 171.31,-746.46 176.92,-735.74"/>
<polygon fill="deeppink" stroke="deeppink" points="181.22,-726.62 181.03,-737.59 179.09,-731.15 176.96,-735.67 176.96,-735.67 176.96,-735.67 179.09,-731.15 172.89,-733.75 181.22,-726.62 181.22,-726.62"/>
<text text-anchor="middle" x="148.5" y="-769.65" font-family="Times New Roman,serif" font-size="14.00">3</text>
</g>
<!-- A&#45;&gt;B -->
<g id="edge7" class="edge">
<title>A&#45;&gt;B</title>
<path fill="none" stroke="deeppink" d="M125.58,-740.16C136.12,-734.96 150.27,-727.98 162.33,-722.03"/>
<polygon fill="deeppink" stroke="deeppink" points="171.44,-717.53 164.47,-725.99 166.96,-719.75 162.47,-721.96 162.47,-721.96 162.47,-721.96 166.96,-719.75 160.48,-717.92 171.44,-717.53 171.44,-717.53"/>
<text text-anchor="middle" x="148.5" y="-733.65" font-family="Times New Roman,serif" font-size="14.00">4</text>
</g>
<!-- A&#45;&gt;B -->
<g id="edge8" class="edge">
<title>A&#45;&gt;B</title>
<path fill="none" stroke="deeppink" d="M118.87,-732.33C124.95,-723.37 133.91,-712.89 145,-707.85 149.66,-705.74 154.91,-704.93 160.09,-704.88"/>
<polygon fill="deeppink" stroke="deeppink" points="170.38,-705.63 160.08,-709.39 165.4,-705.27 160.41,-704.9 160.41,-704.9 160.41,-704.9 165.4,-705.27 160.74,-700.41 170.38,-705.63 170.38,-705.63"/>
<text text-anchor="middle" x="148.5" y="-711.65" font-family="Times New Roman,serif" font-size="14.00">5</text>
</g>
<!-- A&#45;&gt;B -->
<g id="edge9" class="edge">
<title>A&#45;&gt;B</title>
<path fill="none" stroke="deeppink" d="M114.51,-730.45C119.36,-715.67 128.67,-695.39 145,-685.85 152.4,-681.53 160.58,-684.47 167.73,-689.57"/>
<polygon fill="deeppink" stroke="deeppink" points="175.56,-696.24 165.03,-693.18 171.75,-693 167.95,-689.75 167.95,-689.75 167.95,-689.75 171.75,-693 170.87,-686.33 175.56,-696.24 175.56,-696.24"/>
<text text-anchor="middle" x="148.5" y="-689.65" font-family="Times New Roman,serif" font-size="14.00">6</text>
</g>
<!-- A&#45;&gt;B -->
<g id="edge10" class="edge">
<title>A&#45;&gt;B</title>
<path fill="none" stroke="deeppink" d="M111.79,-729.76C114.84,-709.78 123.05,-678.49 145,-663.85 157.25,-655.69 168.35,-669.22 176.06,-683.69"/>
<polygon fill="deeppink" stroke="deeppink" points="180.62,-693.1 172.21,-686.06 178.44,-688.6 176.26,-684.1 176.26,-684.1 176.26,-684.1 178.44,-688.6 180.31,-682.14 180.62,-693.1 180.62,-693.1"/>
<text text-anchor="middle" x="148.5" y="-667.65" font-family="Times New Roman,serif" font-size="14.00">7</text>
</g>
<!-- A&#45;&gt;B -->
<g id="edge11" class="edge">
<title>A&#45;&gt;B</title>
<path fill="none" stroke="deeppink" d="M110,-729.54C111.11,-704.93 117.2,-661.95 145,-641.85 162.91,-628.91 174.79,-658.38 181.21,-682.51"/>
<polygon fill="deeppink" stroke="deeppink" points="183.63,-692.39 176.88,-683.74 182.44,-687.53 181.25,-682.67 181.25,-682.67 181.25,-682.67 182.44,-687.53 185.62,-681.6 183.63,-692.39 183.63,-692.39"/>
<text text-anchor="middle" x="148.5" y="-645.65" font-family="Times New Roman,serif" font-size="14.00">8</text>
</g>
<!-- A&#45;&gt;B -->
<g id="edge12" class="edge">
<title>A&#45;&gt;B</title>
<path fill="none" stroke="deeppink" d="M112.21,-730.12C116.58,-698.22 127.47,-633.24 145,-619.85 168.75,-601.73 179.59,-649.36 184.12,-682.04"/>
<polygon fill="deeppink" stroke="deeppink" points="185.37,-692.03 179.66,-682.67 184.75,-687.07 184.12,-682.1 184.12,-682.1 184.12,-682.1 184.75,-687.07 188.59,-681.54 185.37,-692.03 185.37,-692.03"/>
<text text-anchor="middle" x="148.5" y="-623.65" font-family="Times New Roman,serif" font-size="14.00">9</text>
</g>
<!-- G -->
<g id="node7" class="node">
<title>G</title>
<ellipse fill="none" stroke="deeppink" cx="581" cy="-149.85" rx="18" ry="18"/>
<text text-anchor="middle" x="581" y="-146.15" font-family="Times New Roman,serif" font-size="14.00">G</text>
</g>
<!-- G&#45;&gt;H -->
<g id="edge69" class="edge">
<title>G&#45;&gt;H</title>
<path fill="none" stroke="deeppink" d="M583.5,-167.91C586.92,-203.93 596.59,-282.68 617,-298.85 636.98,-314.68 650.41,-225.28 656.02,-177.88"/>
<polygon fill="deeppink" stroke="deeppink" points="657.16,-167.91 660.5,-178.35 656.6,-172.88 656.03,-177.84 656.03,-177.84 656.03,-177.84 656.6,-172.88 651.56,-177.33 657.16,-167.91 657.16,-167.91"/>
<text text-anchor="middle" x="620.5" y="-304.65" font-family="Times New Roman,serif" font-size="14.00">0</text>
</g>
<!-- G&#45;&gt;H -->
<g id="edge70" class="edge">
<title>G&#45;&gt;H</title>
<path fill="none" stroke="deeppink" d="M582.42,-168.08C583.97,-205.38 591.1,-284.98 624,-260.85 649.64,-242.06 656.98,-204.44 658.84,-178.24"/>
<polygon fill="deeppink" stroke="deeppink" points="659.32,-168.14 663.34,-178.34 659.08,-173.13 658.84,-178.12 658.84,-178.12 658.84,-178.12 659.08,-173.13 654.35,-177.91 659.32,-168.14 659.32,-168.14"/>
<text text-anchor="middle" x="620.5" y="-267.65" font-family="Times New Roman,serif" font-size="14.00">1</text>
</g>
<!-- G&#45;&gt;H -->
<g id="edge71" class="edge">
<title>G&#45;&gt;H</title>
<path fill="none" stroke="deeppink" d="M584.97,-167.57C588.94,-185.03 597.85,-210.8 617,-222.85 636.9,-235.38 648.37,-203.35 654.15,-177.81"/>
<polygon fill="deeppink" stroke="deeppink" points="656.23,-167.75 658.62,-178.46 655.22,-172.65 654.21,-177.55 654.21,-177.55 654.21,-177.55 655.22,-172.65 649.8,-176.64 656.23,-167.75 656.23,-167.75"/>
<text text-anchor="middle" x="620.5" y="-229.65" font-family="Times New Roman,serif" font-size="14.00">2</text>
</g>
<!-- G&#45;&gt;H -->
<g id="edge72" class="edge">
<title>G&#45;&gt;H</title>
<path fill="none" stroke="deeppink" d="M590.56,-165.22C598.36,-177 610.67,-190.38 624,-184.85 630.83,-182.03 637.02,-177.15 642.23,-171.92"/>
<polygon fill="deeppink" stroke="deeppink" points="649.12,-164.2 645.82,-174.65 645.79,-167.93 642.46,-171.66 642.46,-171.66 642.46,-171.66 645.79,-167.93 639.1,-168.66 649.12,-164.2 649.12,-164.2"/>
<text text-anchor="middle" x="620.5" y="-190.65" font-family="Times New Roman,serif" font-size="14.00">3</text>
</g>
<!-- G&#45;&gt;H -->
<g id="edge73" class="edge">
<title>G&#45;&gt;H</title>
<path fill="none" stroke="deeppink" d="M599.09,-149.85C608.66,-149.85 620.82,-149.85 631.68,-149.85"/>
<polygon fill="deeppink" stroke="deeppink" points="641.96,-149.85 631.96,-154.35 636.96,-149.85 631.96,-149.85 631.96,-149.85 631.96,-149.85 636.96,-149.85 631.96,-145.35 641.96,-149.85 641.96,-149.85"/>
<text text-anchor="middle" x="620.5" y="-153.65" font-family="Times New Roman,serif" font-size="14.00">4</text>
</g>
<!-- G&#45;&gt;H -->
<g id="edge74" class="edge">
<title>G&#45;&gt;H</title>
<path fill="none" stroke="deeppink" d="M595.18,-138.72C603.24,-133.23 613.92,-128.29 624,-130.85 627.96,-131.86 631.95,-133.41 635.76,-135.21"/>
<polygon fill="deeppink" stroke="deeppink" points="644.69,-139.99 633.75,-139.24 640.28,-137.63 635.87,-135.27 635.87,-135.27 635.87,-135.27 640.28,-137.63 638,-131.3 644.69,-139.99 644.69,-139.99"/>
<text text-anchor="middle" x="620.5" y="-134.65" font-family="Times New Roman,serif" font-size="14.00">5</text>
</g>
<!-- G&#45;&gt;H -->
<g id="edge75" class="edge">
<title>G&#45;&gt;H</title>
<path fill="none" stroke="deeppink" d="M589.94,-133.92C597.59,-120.96 610.04,-105.73 624,-111.85 631.34,-115.07 637.82,-120.68 643.15,-126.61"/>
<polygon fill="deeppink" stroke="deeppink" points="649.67,-134.7 639.89,-129.74 646.53,-130.81 643.4,-126.91 643.4,-126.91 643.4,-126.91 646.53,-130.81 646.9,-124.09 649.67,-134.7 649.67,-134.7"/>
<text text-anchor="middle" x="620.5" y="-115.65" font-family="Times New Roman,serif" font-size="14.00">6</text>
</g>
<!-- G&#45;&gt;H -->
<g id="edge76" class="edge">
<title>G&#45;&gt;H</title>
<path fill="none" stroke="deeppink" d="M587.13,-132.72C592.26,-118.95 601.64,-100.53 617,-91.85 633.04,-82.8 644.58,-103.66 651.46,-122.83"/>
<polygon fill="deeppink" stroke="deeppink" points="654.63,-132.54 647.25,-124.43 653.08,-127.79 651.53,-123.04 651.53,-123.04 651.53,-123.04 653.08,-127.79 655.8,-121.64 654.63,-132.54 654.63,-132.54"/>
<text text-anchor="middle" x="620.5" y="-95.65" font-family="Times New Roman,serif" font-size="14.00">7</text>
</g>
<!-- G&#45;&gt;H -->
<g id="edge77" class="edge">
<title>G&#45;&gt;H</title>
<path fill="none" stroke="deeppink" d="M584.26,-132.12C587.71,-113.27 596.25,-84.35 617,-70.85 638.47,-56.88 649.71,-93.7 654.99,-121.67"/>
<polygon fill="deeppink" stroke="deeppink" points="656.73,-131.83 650.6,-122.73 655.88,-126.9 655.04,-121.97 655.04,-121.97 655.04,-121.97 655.88,-126.9 659.48,-121.21 656.73,-131.83 656.73,-131.83"/>
<text text-anchor="middle" x="620.5" y="-74.65" font-family="Times New Roman,serif" font-size="14.00">8</text>
</g>
<!-- G&#45;&gt;H -->
<g id="edge78" class="edge">
<title>G&#45;&gt;H</title>
<path fill="none" stroke="deeppink" d="M582.92,-131.91C585.36,-97.75 594.05,-28.61 624,-49.85 646.77,-66.01 654.84,-98.15 657.64,-121.65"/>
<polygon fill="deeppink" stroke="deeppink" points="658.59,-131.75 653.17,-122.22 658.12,-126.77 657.65,-121.79 657.65,-121.79 657.65,-121.79 658.12,-126.77 662.13,-121.37 658.59,-131.75 658.59,-131.75"/>
<text text-anchor="middle" x="620.5" y="-53.65" font-family="Times New Roman,serif" font-size="14.00">9</text>
</g>
<!-- G&#45;&gt;L -->
<g id="edge68" class="edge">
<title>G&#45;&gt;L</title>
<path fill="none" stroke="deeppink" d="M582.67,-131.83C584.57,-107.92 591.58,-66.03 617,-42.85 673.83,8.97 737.39,17.25 790,-38.85 812.98,-63.36 821.84,-295.13 824.26,-376.66"/>
<polygon fill="deeppink" stroke="deeppink" points="824.54,-386.7 819.76,-376.83 824.4,-381.7 824.26,-376.7 824.26,-376.7 824.26,-376.7 824.4,-381.7 828.75,-376.57 824.54,-386.7 824.54,-386.7"/>
<text text-anchor="middle" x="699.5" y="-5.65" font-family="Times New Roman,serif" font-size="14.00">&#45;</text>
</g>
<!-- F -->
<g id="node8" class="node">
<title>F</title>
<ellipse fill="none" stroke="deeppink" cx="502" cy="-206.85" rx="18" ry="18"/>
<text text-anchor="middle" x="502" y="-203.15" font-family="Times New Roman,serif" font-size="14.00">F</text>
</g>
<!-- F&#45;&gt;L -->
<g id="edge57" class="edge">
<title>F&#45;&gt;L</title>
<path fill="none" stroke="deeppink" d="M502.14,-225.08C501.83,-254.12 505.74,-310.78 538,-341.85 556.88,-360.04 730.4,-389.63 798.11,-400.59"/>
<polygon fill="deeppink" stroke="deeppink" points="808.03,-402.19 797.44,-405.04 803.09,-401.39 798.16,-400.6 798.16,-400.6 798.16,-400.6 803.09,-401.39 798.87,-396.16 808.03,-402.19 808.03,-402.19"/>
<text text-anchor="middle" x="660" y="-383.65" font-family="Times New Roman,serif" font-size="14.00">&#45;</text>
</g>
<!-- F&#45;&gt;G -->
<g id="edge58" class="edge">
<title>F&#45;&gt;G</title>
<path fill="none" stroke="deeppink" d="M503.6,-225.04C505.49,-262.71 513.27,-343.66 545,-317.85 566.31,-300.53 575.08,-221.02 578.32,-177.88"/>
<polygon fill="deeppink" stroke="deeppink" points="579.03,-167.76 582.82,-178.05 578.68,-172.74 578.33,-177.73 578.33,-177.73 578.33,-177.73 578.68,-172.74 573.84,-177.42 579.03,-167.76 579.03,-167.76"/>
<text text-anchor="middle" x="541.5" y="-326.65" font-family="Times New Roman,serif" font-size="14.00">0</text>
</g>
<!-- F&#45;&gt;G -->
<g id="edge59" class="edge">
<title>F&#45;&gt;G</title>
<path fill="none" stroke="deeppink" d="M506.03,-224.81C511.29,-251.35 523.65,-296.22 545,-279.85 561.14,-267.49 571.51,-211.87 576.5,-177.52"/>
<polygon fill="deeppink" stroke="deeppink" points="577.87,-167.61 580.95,-178.13 577.18,-172.56 576.5,-177.51 576.5,-177.51 576.5,-177.51 577.18,-172.56 572.04,-176.89 577.87,-167.61 577.87,-167.61"/>
<text text-anchor="middle" x="541.5" y="-287.65" font-family="Times New Roman,serif" font-size="14.00">1</text>
</g>
<!-- F&#45;&gt;G -->
<g id="edge60" class="edge">
<title>F&#45;&gt;G</title>
<path fill="none" stroke="deeppink" d="M511.64,-222.55C519.88,-235.42 532.81,-250.26 545,-241.85 565.58,-227.66 574.07,-199.65 577.56,-178.25"/>
<polygon fill="deeppink" stroke="deeppink" points="578.94,-168.06 582.06,-178.57 578.27,-173.02 577.6,-177.97 577.6,-177.97 577.6,-177.97 578.27,-173.02 573.14,-177.37 578.94,-168.06 578.94,-168.06"/>
<text text-anchor="middle" x="541.5" y="-248.65" font-family="Times New Roman,serif" font-size="14.00">2</text>
</g>
<!-- F&#45;&gt;G -->
<g id="edge61" class="edge">
<title>F&#45;&gt;G</title>
<path fill="none" stroke="deeppink" d="M519.98,-209C528.07,-209.22 537.57,-208.24 545,-203.85 555.75,-197.5 563.79,-186.4 569.43,-175.91"/>
<polygon fill="deeppink" stroke="deeppink" points="573.95,-166.6 573.63,-177.56 571.76,-171.1 569.58,-175.6 569.58,-175.6 569.58,-175.6 571.76,-171.1 565.53,-173.64 573.95,-166.6 573.95,-166.6"/>
<text text-anchor="middle" x="541.5" y="-210.65" font-family="Times New Roman,serif" font-size="14.00">3</text>
</g>
<!-- F&#45;&gt;G -->
<g id="edge62" class="edge">
<title>F&#45;&gt;G</title>
<path fill="none" stroke="deeppink" d="M517.12,-196.4C528.52,-187.96 544.76,-175.94 557.88,-166.23"/>
<polygon fill="deeppink" stroke="deeppink" points="565.97,-160.24 560.61,-169.81 561.95,-163.22 557.93,-166.19 557.93,-166.19 557.93,-166.19 561.95,-163.22 555.25,-162.58 565.97,-160.24 565.97,-160.24"/>
<text text-anchor="middle" x="541.5" y="-184.65" font-family="Times New Roman,serif" font-size="14.00">4</text>
</g>
<!-- F&#45;&gt;G -->
<g id="edge63" class="edge">
<title>F&#45;&gt;G</title>
<path fill="none" stroke="deeppink" d="M510.45,-190.65C516.36,-179.66 525.67,-165.75 538,-157.85 542.5,-154.98 547.78,-153.09 553.05,-151.85"/>
<polygon fill="deeppink" stroke="deeppink" points="562.98,-150.21 553.85,-156.28 558.04,-151.02 553.11,-151.84 553.11,-151.84 553.11,-151.84 558.04,-151.02 552.37,-147.4 562.98,-150.21 562.98,-150.21"/>
<text text-anchor="middle" x="541.5" y="-161.65" font-family="Times New Roman,serif" font-size="14.00">5</text>
</g>
<!-- F&#45;&gt;G -->
<g id="edge64" class="edge">
<title>F&#45;&gt;G</title>
<path fill="none" stroke="deeppink" d="M506.2,-189.29C510.32,-172.3 519.33,-147.47 538,-135.85 543.65,-132.34 550.29,-132.8 556.6,-134.96"/>
<polygon fill="deeppink" stroke="deeppink" points="566.05,-139.41 555.08,-139.22 561.52,-137.28 557,-135.15 557,-135.15 557,-135.15 561.52,-137.28 558.92,-131.08 566.05,-139.41 566.05,-139.41"/>
<text text-anchor="middle" x="541.5" y="-139.65" font-family="Times New Roman,serif" font-size="14.00">6</text>
</g>
<!-- F&#45;&gt;G -->
<g id="edge65" class="edge">
<title>F&#45;&gt;G</title>
<path fill="none" stroke="deeppink" d="M504.06,-188.65C506.41,-166.92 513.94,-131.44 538,-114.85 547.62,-108.22 557.7,-116.06 565.57,-125.99"/>
<polygon fill="deeppink" stroke="deeppink" points="571.36,-134.16 561.91,-128.6 568.47,-130.08 565.58,-126 565.58,-126 565.58,-126 568.47,-130.08 569.25,-123.4 571.36,-134.16 571.36,-134.16"/>
<text text-anchor="middle" x="541.5" y="-118.65" font-family="Times New Roman,serif" font-size="14.00">7</text>
</g>
<!-- F&#45;&gt;G -->
<g id="edge66" class="edge">
<title>F&#45;&gt;G</title>
<path fill="none" stroke="deeppink" d="M502.55,-188.69C503.03,-162.74 508.24,-115.79 538,-93.85 552.64,-83.06 564.52,-104.04 571.86,-123.33"/>
<polygon fill="deeppink" stroke="deeppink" points="575.19,-132.79 567.63,-124.85 573.53,-128.08 571.88,-123.36 571.88,-123.36 571.88,-123.36 573.53,-128.08 576.12,-121.87 575.19,-132.79 575.19,-132.79"/>
<text text-anchor="middle" x="541.5" y="-97.65" font-family="Times New Roman,serif" font-size="14.00">8</text>
</g>
<!-- F&#45;&gt;G -->
<g id="edge67" class="edge">
<title>F&#45;&gt;G</title>
<path fill="none" stroke="deeppink" d="M504.98,-189.08C509.07,-156 519.64,-87.04 538,-72.85 557.88,-57.5 569.57,-93.89 575.38,-121.73"/>
<polygon fill="deeppink" stroke="deeppink" points="577.32,-131.85 571.02,-122.88 576.38,-126.94 575.44,-122.03 575.44,-122.03 575.44,-122.03 576.38,-126.94 579.86,-121.18 577.32,-131.85 577.32,-131.85"/>
<text text-anchor="middle" x="541.5" y="-76.65" font-family="Times New Roman,serif" font-size="14.00">9</text>
</g>
<!-- C&#45;&gt;L -->
<g id="edge24" class="edge">
<title>C&#45;&gt;L</title>
<path fill="none" stroke="deeppink" d="M267.89,-688.15C268.68,-732.82 277.45,-843.85 345,-843.85 345,-843.85 345,-843.85 744,-843.85 749.08,-843.85 787.91,-782.82 790,-776.85 812.29,-713.42 821.43,-508.78 824.1,-433.23"/>
<polygon fill="deeppink" stroke="deeppink" points="824.45,-423.05 828.61,-433.2 824.28,-428.05 824.11,-433.04 824.11,-433.04 824.11,-433.04 824.28,-428.05 819.61,-432.89 824.45,-423.05 824.45,-423.05"/>
<text text-anchor="middle" x="541.5" y="-847.65" font-family="Times New Roman,serif" font-size="14.00">&#45;</text>
</g>
<!-- C&#45;&gt;D -->
<g id="edge25" class="edge">
<title>C&#45;&gt;D</title>
<path fill="none" stroke="deeppink" d="M268.14,-687.96C269.07,-728.4 274.98,-820.33 310,-791.85 331.31,-774.53 340.08,-695.02 343.32,-651.88"/>
<polygon fill="deeppink" stroke="deeppink" points="344.03,-641.76 347.82,-652.05 343.68,-646.74 343.33,-651.73 343.33,-651.73 343.33,-651.73 343.68,-646.74 338.84,-651.42 344.03,-641.76 344.03,-641.76"/>
<text text-anchor="middle" x="306.5" y="-798.65" font-family="Times New Roman,serif" font-size="14.00">0</text>
</g>
<!-- C&#45;&gt;D -->
<g id="edge26" class="edge">
<title>C&#45;&gt;D</title>
<path fill="none" stroke="deeppink" d="M270.1,-687.96C274.3,-717.88 285.54,-772.6 310,-753.85 326.14,-741.49 336.51,-685.87 341.5,-651.52"/>
<polygon fill="deeppink" stroke="deeppink" points="342.87,-641.61 345.95,-652.13 342.18,-646.56 341.5,-651.51 341.5,-651.51 341.5,-651.51 342.18,-646.56 337.04,-650.89 342.87,-641.61 342.87,-641.61"/>
<text text-anchor="middle" x="306.5" y="-760.65" font-family="Times New Roman,serif" font-size="14.00">1</text>
</g>
<!-- C&#45;&gt;D -->
<g id="edge27" class="edge">
<title>C&#45;&gt;D</title>
<path fill="none" stroke="deeppink" d="M274.31,-686.39C281.79,-703.41 295.13,-726.11 310,-715.85 330.58,-701.66 339.07,-673.65 342.56,-652.25"/>
<polygon fill="deeppink" stroke="deeppink" points="343.94,-642.06 347.06,-652.57 343.27,-647.02 342.6,-651.97 342.6,-651.97 342.6,-651.97 343.27,-647.02 338.14,-651.37 343.94,-642.06 343.94,-642.06"/>
<text text-anchor="middle" x="306.5" y="-721.65" font-family="Times New Roman,serif" font-size="14.00">2</text>
</g>
<!-- C&#45;&gt;D -->
<g id="edge28" class="edge">
<title>C&#45;&gt;D</title>
<path fill="none" stroke="deeppink" d="M283.53,-677.55C291.81,-680.51 301.91,-682.25 310,-677.85 321.16,-671.79 329.31,-660.46 334.92,-649.74"/>
<polygon fill="deeppink" stroke="deeppink" points="339.22,-640.62 339.03,-651.59 337.09,-645.15 334.96,-649.67 334.96,-649.67 334.96,-649.67 337.09,-645.15 330.89,-647.75 339.22,-640.62 339.22,-640.62"/>
<text text-anchor="middle" x="306.5" y="-683.65" font-family="Times New Roman,serif" font-size="14.00">3</text>
</g>
<!-- C&#45;&gt;D -->
<g id="edge29" class="edge">
<title>C&#45;&gt;D</title>
<path fill="none" stroke="deeppink" d="M282.85,-660.99C293.82,-654.43 308.97,-645.38 321.57,-637.85"/>
<polygon fill="deeppink" stroke="deeppink" points="330.2,-632.7 323.92,-641.69 325.91,-635.26 321.61,-637.83 321.61,-637.83 321.61,-637.83 325.91,-635.26 319.31,-633.96 330.2,-632.7 330.2,-632.7"/>
<text text-anchor="middle" x="306.5" y="-651.65" font-family="Times New Roman,serif" font-size="14.00">4</text>
</g>
<!-- C&#45;&gt;D -->
<g id="edge30" class="edge">
<title>C&#45;&gt;D</title>
<path fill="none" stroke="deeppink" d="M276.07,-653.9C282.04,-643.94 291.18,-631.9 303,-625.85 307.48,-623.56 312.58,-622.36 317.66,-621.83"/>
<polygon fill="deeppink" stroke="deeppink" points="327.82,-621.53 317.95,-626.32 322.82,-621.68 317.82,-621.82 317.82,-621.82 317.82,-621.82 322.82,-621.68 317.69,-617.32 327.82,-621.53 327.82,-621.53"/>
<text text-anchor="middle" x="306.5" y="-629.65" font-family="Times New Roman,serif" font-size="14.00">5</text>
</g>
<!-- C&#45;&gt;D -->
<g id="edge31" class="edge">
<title>C&#45;&gt;D</title>
<path fill="none" stroke="deeppink" d="M271.91,-652.28C276.46,-636.51 285.66,-614.28 303,-603.85 309.71,-599.82 317.37,-601.71 324.3,-605.62"/>
<polygon fill="deeppink" stroke="deeppink" points="332.54,-611.36 321.76,-609.34 328.44,-608.51 324.33,-605.65 324.33,-605.65 324.33,-605.65 328.44,-608.51 326.9,-601.96 332.54,-611.36 332.54,-611.36"/>
<text text-anchor="middle" x="306.5" y="-607.65" font-family="Times New Roman,serif" font-size="14.00">6</text>
</g>
<!-- C&#45;&gt;D -->
<g id="edge32" class="edge">
<title>C&#45;&gt;D</title>
<path fill="none" stroke="deeppink" d="M269.41,-651.68C272.12,-630.81 280.01,-597.46 303,-581.85 314.3,-574.19 325.15,-585.69 332.99,-598.59"/>
<polygon fill="deeppink" stroke="deeppink" points="337.91,-607.52 329.14,-600.93 335.49,-603.14 333.08,-598.76 333.08,-598.76 333.08,-598.76 335.49,-603.14 337.03,-596.59 337.91,-607.52 337.91,-607.52"/>
<text text-anchor="middle" x="306.5" y="-585.65" font-family="Times New Roman,serif" font-size="14.00">7</text>
</g>
<!-- C&#45;&gt;D -->
<g id="edge33" class="edge">
<title>C&#45;&gt;D</title>
<path fill="none" stroke="deeppink" d="M267.74,-651.73C268.47,-626.37 274.04,-581.03 303,-559.85 319.65,-547.68 331.55,-573.8 338.34,-596.25"/>
<polygon fill="deeppink" stroke="deeppink" points="341.1,-606.16 334.08,-597.73 339.76,-601.34 338.42,-596.52 338.42,-596.52 338.42,-596.52 339.76,-601.34 342.75,-595.32 341.1,-606.16 341.1,-606.16"/>
<text text-anchor="middle" x="306.5" y="-563.65" font-family="Times New Roman,serif" font-size="14.00">8</text>
</g>
<!-- C&#45;&gt;D -->
<g id="edge34" class="edge">
<title>C&#45;&gt;D</title>
<path fill="none" stroke="deeppink" d="M270.11,-651.97C274.35,-619.42 285.08,-552.62 303,-538.85 325.19,-521.82 336.43,-564.87 341.48,-595.73"/>
<polygon fill="deeppink" stroke="deeppink" points="343.01,-606.02 337.08,-596.79 342.27,-601.08 341.53,-596.13 341.53,-596.13 341.53,-596.13 342.27,-601.08 345.99,-595.47 343.01,-606.02 343.01,-606.02"/>
<text text-anchor="middle" x="306.5" y="-542.65" font-family="Times New Roman,serif" font-size="14.00">9</text>
</g>
<!-- E&#45;&gt;L -->
<g id="edge47" class="edge">
<title>E&#45;&gt;L</title>
<path fill="none" stroke="deeppink" d="M425.72,-599.15C426.07,-643.82 433.73,-754.85 501,-754.85 501,-754.85 501,-754.85 744,-754.85 767.06,-754.85 777.01,-749.91 790,-730.85 822.8,-682.75 825.53,-503.38 825.3,-433.23"/>
<polygon fill="deeppink" stroke="deeppink" points="825.24,-422.95 829.8,-432.92 825.27,-427.95 825.3,-432.95 825.3,-432.95 825.3,-432.95 825.27,-427.95 820.8,-432.97 825.24,-422.95 825.24,-422.95"/>
<text text-anchor="middle" x="620.5" y="-758.65" font-family="Times New Roman,serif" font-size="14.00">0</text>
</g>
<!-- E&#45;&gt;L -->
<g id="edge48" class="edge">
<title>E&#45;&gt;L</title>
<path fill="none" stroke="deeppink" d="M427.62,-598.91C432.02,-635.91 447.75,-716.85 501,-716.85 501,-716.85 501,-716.85 744,-716.85 767.06,-716.85 776.88,-711.82 790,-692.85 818.79,-651.26 823.95,-497.61 824.84,-433.38"/>
<polygon fill="deeppink" stroke="deeppink" points="824.95,-423.16 829.34,-433.21 824.89,-428.16 824.84,-433.16 824.84,-433.16 824.84,-433.16 824.89,-428.16 820.34,-433.11 824.95,-423.16 824.95,-423.16"/>
<text text-anchor="middle" x="620.5" y="-720.65" font-family="Times New Roman,serif" font-size="14.00">1</text>
</g>
<!-- E&#45;&gt;L -->
<g id="edge49" class="edge">
<title>E&#45;&gt;L</title>
<path fill="none" stroke="deeppink" d="M430.68,-598.38C439.38,-626.56 460.94,-678.85 501,-678.85 501,-678.85 501,-678.85 744,-678.85 767.06,-678.85 776.7,-673.7 790,-654.85 814.87,-619.62 822.18,-490.79 824.24,-433.11"/>
<polygon fill="deeppink" stroke="deeppink" points="824.58,-422.89 828.74,-433.03 824.41,-427.89 824.25,-432.89 824.25,-432.89 824.25,-432.89 824.41,-427.89 819.75,-432.74 824.58,-422.89 824.58,-422.89"/>
<text text-anchor="middle" x="620.5" y="-682.65" font-family="Times New Roman,serif" font-size="14.00">2</text>
</g>
<!-- E&#45;&gt;L -->
<g id="edge50" class="edge">
<title>E&#45;&gt;L</title>
<path fill="none" stroke="deeppink" d="M435.44,-595.69C448.04,-613.45 472.15,-640.85 501,-640.85 501,-640.85 501,-640.85 744,-640.85 767.06,-640.85 776.47,-635.53 790,-616.85 810.89,-588 820.09,-484.21 823.42,-433.35"/>
<polygon fill="deeppink" stroke="deeppink" points="824.06,-423.06 827.93,-433.32 823.75,-428.05 823.44,-433.04 823.44,-433.04 823.44,-433.04 823.75,-428.05 818.94,-432.76 824.06,-423.06 824.06,-423.06"/>
<text text-anchor="middle" x="620.5" y="-644.65" font-family="Times New Roman,serif" font-size="14.00">3</text>
</g>
<!-- E&#45;&gt;L -->
<g id="edge51" class="edge">
<title>E&#45;&gt;L</title>
<path fill="none" stroke="deeppink" d="M441.7,-588.3C456.61,-594.69 479.83,-602.85 501,-602.85 501,-602.85 501,-602.85 744,-602.85 816.42,-602.85 825.51,-487.97 825.73,-433.22"/>
<polygon fill="deeppink" stroke="deeppink" points="825.67,-423.13 830.23,-433.1 825.7,-428.13 825.73,-433.13 825.73,-433.13 825.73,-433.13 825.7,-428.13 821.23,-433.15 825.67,-423.13 825.67,-423.13"/>
<text text-anchor="middle" x="620.5" y="-606.65" font-family="Times New Roman,serif" font-size="14.00">4</text>
</g>
<!-- E&#45;&gt;L -->
<g id="edge52" class="edge">
<title>E&#45;&gt;L</title>
<path fill="none" stroke="deeppink" d="M442.17,-575.35C457.22,-570.72 480.36,-564.85 501,-564.85 501,-564.85 501,-564.85 744,-564.85 767.06,-564.85 775.66,-558.92 790,-540.85 814.7,-509.73 822.14,-463.11 824.28,-433.34"/>
<polygon fill="deeppink" stroke="deeppink" points="824.85,-423.2 828.78,-433.44 824.57,-428.19 824.29,-433.18 824.29,-433.18 824.29,-433.18 824.57,-428.19 819.8,-432.93 824.85,-423.2 824.85,-423.2"/>
<text text-anchor="middle" x="620.5" y="-568.65" font-family="Times New Roman,serif" font-size="14.00">5</text>
</g>
<!-- E&#45;&gt;L -->
<g id="edge53" class="edge">
<title>E&#45;&gt;L</title>
<path fill="none" stroke="deeppink" d="M436.47,-566.67C449.6,-550.67 473.72,-526.85 501,-526.85 501,-526.85 501,-526.85 744,-526.85 767.06,-526.85 774.86,-520.24 790,-502.85 807.25,-483.04 816.2,-454.11 820.71,-432.82"/>
<polygon fill="deeppink" stroke="deeppink" points="822.63,-422.76 825.17,-433.43 821.69,-427.67 820.75,-432.58 820.75,-432.58 820.75,-432.58 821.69,-427.67 816.33,-431.74 822.63,-422.76 822.63,-422.76"/>
<text text-anchor="middle" x="620.5" y="-530.65" font-family="Times New Roman,serif" font-size="14.00">6</text>
</g>
<!-- E&#45;&gt;L -->
<g id="edge54" class="edge">
<title>E&#45;&gt;L</title>
<path fill="none" stroke="deeppink" d="M431.31,-563.55C440.69,-536.9 462.88,-488.85 501,-488.85 501,-488.85 501,-488.85 744,-488.85 776.73,-488.85 800.41,-455.4 813.42,-430.72"/>
<polygon fill="deeppink" stroke="deeppink" points="818.04,-421.45 817.61,-432.41 815.81,-425.93 813.58,-430.4 813.58,-430.4 813.58,-430.4 815.81,-425.93 809.55,-428.4 818.04,-421.45 818.04,-421.45"/>
<text text-anchor="middle" x="620.5" y="-492.65" font-family="Times New Roman,serif" font-size="14.00">7</text>
</g>
<!-- E&#45;&gt;L -->
<g id="edge55" class="edge">
<title>E&#45;&gt;L</title>
<path fill="none" stroke="deeppink" d="M427.97,-563.05C433.01,-527.45 449.8,-450.85 501,-450.85 501,-450.85 501,-450.85 744,-450.85 767.06,-450.85 789.56,-436.58 804.97,-423.94"/>
<polygon fill="deeppink" stroke="deeppink" points="812.76,-417.18 808.16,-427.13 808.99,-420.46 805.21,-423.73 805.21,-423.73 805.21,-423.73 808.99,-420.46 802.26,-420.33 812.76,-417.18 812.76,-417.18"/>
<text text-anchor="middle" x="620.5" y="-454.65" font-family="Times New Roman,serif" font-size="14.00">8</text>
</g>
<!-- E&#45;&gt;L -->
<g id="edge56" class="edge">
<title>E&#45;&gt;L</title>
<path fill="none" stroke="deeppink" d="M425.96,-562.88C426.9,-519.54 435.84,-412.85 501,-412.85 501,-412.85 501,-412.85 700.5,-412.85 733.89,-412.85 772.22,-409.95 797.43,-407.64"/>
<polygon fill="deeppink" stroke="deeppink" points="807.7,-406.67 798.17,-412.09 802.72,-407.14 797.75,-407.61 797.75,-407.61 797.75,-407.61 802.72,-407.14 797.32,-403.13 807.7,-406.67 807.7,-406.67"/>
<text text-anchor="middle" x="620.5" y="-416.65" font-family="Times New Roman,serif" font-size="14.00">9</text>
</g>
<!-- E&#45;&gt;F -->
<g id="edge46" class="edge">
<title>E&#45;&gt;F</title>
<path fill="none" stroke="deeppink" d="M428.86,-563.14C434.51,-528.58 447.71,-449.74 461,-383.85 471.73,-330.68 486.12,-268.96 494.39,-234.25"/>
<polygon fill="deeppink" stroke="deeppink" points="496.75,-224.38 498.8,-235.16 495.59,-229.25 494.43,-234.11 494.43,-234.11 494.43,-234.11 495.59,-229.25 490.05,-233.06 496.75,-224.38 496.75,-224.38"/>
<text text-anchor="middle" x="463.5" y="-387.65" font-family="Times New Roman,serif" font-size="14.00">&#45;</text>
</g>
<!-- I&#45;&gt;L -->
<g id="edge90" class="edge">
<title>I&#45;&gt;L</title>
<path fill="none" stroke="deeppink" d="M747.5,-169.48C753.08,-201.88 765.21,-264.66 783,-315.85 790.86,-338.46 802.69,-362.97 811.79,-380.53"/>
<polygon fill="deeppink" stroke="deeppink" points="816.53,-389.52 807.89,-382.77 814.2,-385.1 811.87,-380.68 811.87,-380.68 811.87,-380.68 814.2,-385.1 815.85,-378.58 816.53,-389.52 816.53,-389.52"/>
<text text-anchor="middle" x="786.5" y="-337.65" font-family="Times New Roman,serif" font-size="14.00">&#45;</text>
</g>
<!-- I&#45;&gt;L -->
<g id="edge91" class="edge">
<title>I&#45;&gt;L</title>
<path fill="none" stroke="deeppink" d="M749.95,-169.15C757.28,-195 770.31,-239.86 783,-277.85 785.85,-286.39 787.06,-288.35 790,-296.85 799.57,-324.51 809.81,-356.42 816.73,-378.34"/>
<polygon fill="deeppink" stroke="deeppink" points="819.75,-387.95 812.46,-379.76 818.25,-383.18 816.75,-378.41 816.75,-378.41 816.75,-378.41 818.25,-383.18 821.04,-377.06 819.75,-387.95 819.75,-387.95"/>
<text text-anchor="middle" x="786.5" y="-300.65" font-family="Times New Roman,serif" font-size="14.00">0</text>
</g>
<!-- I&#45;&gt;L -->
<g id="edge92" class="edge">
<title>I&#45;&gt;L</title>
<path fill="none" stroke="deeppink" d="M752.81,-168.03C764.49,-194.96 784.3,-241.3 790,-258.85 803.12,-299.26 813.72,-347.39 819.69,-377.04"/>
<polygon fill="deeppink" stroke="deeppink" points="821.68,-387.08 815.32,-378.14 820.71,-382.17 819.74,-377.27 819.74,-377.27 819.74,-377.27 820.71,-382.17 824.15,-376.39 821.68,-387.08 821.68,-387.08"/>
<text text-anchor="middle" x="786.5" y="-262.65" font-family="Times New Roman,serif" font-size="14.00">1</text>
</g>
<!-- I&#45;&gt;L -->
<g id="edge93" class="edge">
<title>I&#45;&gt;L</title>
<path fill="none" stroke="deeppink" d="M757.09,-164.83C767.56,-179.24 781.8,-200.86 790,-221.85 810.52,-274.37 819.32,-340.2 822.85,-376.88"/>
<polygon fill="deeppink" stroke="deeppink" points="823.75,-386.85 818.37,-377.29 823.3,-381.87 822.85,-376.89 822.85,-376.89 822.85,-376.89 823.3,-381.87 827.33,-376.48 823.75,-386.85 823.75,-386.85"/>
<text text-anchor="middle" x="786.5" y="-225.65" font-family="Times New Roman,serif" font-size="14.00">2</text>
</g>
<!-- I&#45;&gt;L -->
<g id="edge94" class="edge">
<title>I&#45;&gt;L</title>
<path fill="none" stroke="deeppink" d="M762.06,-158.98C771.92,-166.02 783.42,-176.02 790,-187.85 807.79,-219.85 818.57,-325.76 822.86,-376.83"/>
<polygon fill="deeppink" stroke="deeppink" points="823.68,-386.85 818.38,-377.25 823.27,-381.87 822.86,-376.89 822.86,-376.89 822.86,-376.89 823.27,-381.87 827.35,-376.52 823.68,-386.85 823.68,-386.85"/>
<text text-anchor="middle" x="786.5" y="-191.65" font-family="Times New Roman,serif" font-size="14.00">3</text>
</g>
<!-- I&#45;&gt;L -->
<g id="edge95" class="edge">
<title>I&#45;&gt;L</title>
<path fill="none" stroke="deeppink" d="M765.45,-148.43C774.27,-149.8 783.84,-152.96 790,-159.85 818.16,-191.4 823.71,-319.25 824.77,-376.68"/>
<polygon fill="deeppink" stroke="deeppink" points="824.92,-386.86 820.27,-376.93 824.85,-381.87 824.77,-376.87 824.77,-376.87 824.77,-376.87 824.85,-381.87 829.27,-376.8 824.92,-386.86 824.92,-386.86"/>
<text text-anchor="middle" x="786.5" y="-163.65" font-family="Times New Roman,serif" font-size="14.00">4</text>
</g>
<!-- I&#45;&gt;L -->
<g id="edge96" class="edge">
<title>I&#45;&gt;L</title>
<path fill="none" stroke="deeppink" d="M761.94,-136.19C771.28,-131.71 782.31,-129.1 790,-135.85 807.93,-151.61 819.41,-311.08 823.41,-376.79"/>
<polygon fill="deeppink" stroke="deeppink" points="824.01,-386.85 818.93,-377.14 823.71,-381.86 823.42,-376.87 823.42,-376.87 823.42,-376.87 823.71,-381.86 827.91,-376.6 824.01,-386.85 824.01,-386.85"/>
<text text-anchor="middle" x="786.5" y="-139.65" font-family="Times New Roman,serif" font-size="14.00">5</text>
</g>
<!-- I&#45;&gt;L -->
<g id="edge97" class="edge">
<title>I&#45;&gt;L</title>
<path fill="none" stroke="deeppink" d="M755.78,-129.6C765.35,-116.99 779,-104.1 790,-113.85 809.47,-131.12 820.17,-306.59 823.69,-376.42"/>
<polygon fill="deeppink" stroke="deeppink" points="824.19,-386.68 819.21,-376.91 823.94,-381.68 823.7,-376.69 823.7,-376.69 823.7,-376.69 823.94,-381.68 828.19,-376.47 824.19,-386.68 824.19,-386.68"/>
<text text-anchor="middle" x="786.5" y="-117.65" font-family="Times New Roman,serif" font-size="14.00">6</text>
</g>
<!-- I&#45;&gt;L -->
<g id="edge98" class="edge">
<title>I&#45;&gt;L</title>
<path fill="none" stroke="deeppink" d="M751.13,-127.18C759.54,-105.95 774.34,-77.85 790,-91.85 811.03,-110.66 820.9,-302.61 823.94,-376.28"/>
<polygon fill="deeppink" stroke="deeppink" points="824.35,-386.65 819.45,-376.84 824.15,-381.66 823.95,-376.66 823.95,-376.66 823.95,-376.66 824.15,-381.66 828.45,-376.48 824.35,-386.65 824.35,-386.65"/>
<text text-anchor="middle" x="786.5" y="-95.65" font-family="Times New Roman,serif" font-size="14.00">7</text>
</g>
<!-- I&#45;&gt;L -->
<g id="edge99" class="edge">
<title>I&#45;&gt;L</title>
<path fill="none" stroke="deeppink" d="M748.2,-126.3C754.78,-97.17 768.98,-50.91 790,-69.85 812.62,-90.23 821.6,-299.16 824.16,-376.37"/>
<polygon fill="deeppink" stroke="deeppink" points="824.49,-386.77 819.68,-376.92 824.33,-381.77 824.18,-376.78 824.18,-376.78 824.18,-376.78 824.33,-381.77 828.67,-376.63 824.49,-386.77 824.49,-386.77"/>
<text text-anchor="middle" x="786.5" y="-73.65" font-family="Times New Roman,serif" font-size="14.00">8</text>
</g>
<!-- I&#45;&gt;L -->
<g id="edge100" class="edge">
<title>I&#45;&gt;L</title>
<path fill="none" stroke="deeppink" d="M746.22,-125.98C750.74,-89.45 762.95,-22.32 790,-46.85 814.24,-68.84 822.25,-294.9 824.36,-376.05"/>
<polygon fill="deeppink" stroke="deeppink" points="824.62,-386.5 819.87,-376.62 824.49,-381.5 824.37,-376.5 824.37,-376.5 824.37,-376.5 824.49,-381.5 828.87,-376.39 824.62,-386.5 824.62,-386.5"/>
<text text-anchor="middle" x="786.5" y="-50.65" font-family="Times New Roman,serif" font-size="14.00">9</text>
</g>
</g>
</svg>
