<?xml version="1.0" encoding="UTF-8" standalone="no"?>
<!DOCTYPE svg PUBLIC "-//W3C//DTD SVG 1.1//EN"
 "http://www.w3.org/Graphics/SVG/1.1/DTD/svg11.dtd">
<!-- Generated by graphviz version 2.50.0 (20211204.2007)
 -->
<!-- Title: Aceita sequências binárias com 0´s e 1´s alternados Pages: 1 -->
<svg width="439pt" height="112pt"
 viewBox="0.00 0.00 439.00 112.00" xmlns="http://www.w3.org/2000/svg" xmlns:xlink="http://www.w3.org/1999/xlink">
<g id="graph0" class="graph" transform="scale(1 1) rotate(0) translate(4 108)">
<title>Aceita sequências binárias com 0´s e 1´s alternados</title>
<polygon fill="white" stroke="transparent" points="-4,4 -4,-108 435,-108 435,4 -4,4"/>
<!-- Start -->
<g id="node1" class="node">
<title>Start</title>
</g>
<!-- A -->
<g id="node3" class="node">
<title>A</title>
<ellipse fill="none" stroke="deeppink" cx="109" cy="-18" rx="18" ry="18"/>
<text text-anchor="middle" x="109" y="-14.3" font-family="Times New Roman,serif" font-size="14.00">A</text>
</g>
<!-- Start&#45;&gt;A -->
<g id="edge1" class="edge">
<title>Start&#45;&gt;A</title>
<path fill="none" stroke="deeppink" d="M54.19,-18C62.65,-18 72.05,-18 80.6,-18"/>
<polygon fill="deeppink" stroke="deeppink" points="90.83,-18 80.83,-22.5 85.83,-18 80.83,-18 80.83,-18 80.83,-18 85.83,-18 80.83,-13.5 90.83,-18 90.83,-18"/>
</g>
<!-- B -->
<g id="node2" class="node">
<title>B</title>
<ellipse fill="none" stroke="deeppink" cx="205" cy="-79" rx="18" ry="18"/>
<text text-anchor="middle" x="205" y="-75.3" font-family="Times New Roman,serif" font-size="14.00">B</text>
</g>
<!-- C -->
<g id="node4" class="node">
<title>C</title>
<ellipse fill="none" stroke="deeppink" cx="305" cy="-51" rx="18" ry="18"/>
<text text-anchor="middle" x="305" y="-47.3" font-family="Times New Roman,serif" font-size="14.00">C</text>
</g>
<!-- B&#45;&gt;C -->
<g id="edge6" class="edge">
<title>B&#45;&gt;C</title>
<path fill="none" stroke="deeppink" d="M218.09,-66.53C224.35,-60.96 232.45,-54.99 241,-52 252.27,-48.06 265.38,-47.3 276.71,-47.72"/>
<polygon fill="deeppink" stroke="deeppink" points="286.91,-48.42 276.63,-52.22 281.93,-48.08 276.94,-47.73 276.94,-47.73 276.94,-47.73 281.93,-48.08 277.25,-43.24 286.91,-48.42 286.91,-48.42"/>
<text text-anchor="middle" x="255" y="-55.8" font-family="Times New Roman,serif" font-size="14.00">11R</text>
</g>
<!-- H -->
<g id="node5" class="node">
<title>H</title>
<ellipse fill="none" stroke="deeppink" cx="409" cy="-51" rx="18" ry="18"/>
<ellipse fill="none" stroke="deeppink" cx="409" cy="-51" rx="22" ry="22"/>
<text text-anchor="middle" x="409" y="-47.3" font-family="Times New Roman,serif" font-size="14.00">H</text>
</g>
<!-- B&#45;&gt;H -->
<g id="edge5" class="edge">
<title>B&#45;&gt;H</title>
<path fill="none" stroke="deeppink" d="M221.69,-86.18C227.61,-88.53 234.49,-90.83 241,-92 253.25,-94.2 256.63,-93.34 269,-92 314.24,-87.08 326.02,-84.96 369,-70 372.63,-68.74 376.36,-67.22 380.01,-65.61"/>
<polygon fill="deeppink" stroke="deeppink" points="389.34,-61.2 382.22,-69.54 384.82,-63.34 380.3,-65.47 380.3,-65.47 380.3,-65.47 384.82,-63.34 378.38,-61.4 389.34,-61.2 389.34,-61.2"/>
<text text-anchor="middle" x="305" y="-92.8" font-family="Times New Roman,serif" font-size="14.00">ΔΔR</text>
</g>
<!-- A&#45;&gt;B -->
<g id="edge2" class="edge">
<title>A&#45;&gt;B</title>
<path fill="none" stroke="deeppink" d="M124.69,-27.53C139.73,-37.29 163.32,-52.6 180.87,-63.99"/>
<polygon fill="deeppink" stroke="deeppink" points="189.42,-69.54 178.58,-67.87 185.22,-66.81 181.03,-64.09 181.03,-64.09 181.03,-64.09 185.22,-66.81 183.48,-60.32 189.42,-69.54 189.42,-69.54"/>
<text text-anchor="middle" x="157" y="-58.8" font-family="Times New Roman,serif" font-size="14.00">00R</text>
</g>
<!-- A&#45;&gt;C -->
<g id="edge4" class="edge">
<title>A&#45;&gt;C</title>
<path fill="none" stroke="deeppink" d="M127.24,-20.31C156.5,-24.33 217.69,-33.11 269,-43 271.72,-43.52 274.55,-44.11 277.36,-44.71"/>
<polygon fill="deeppink" stroke="deeppink" points="287.31,-46.94 276.57,-49.15 282.44,-45.85 277.56,-44.75 277.56,-44.75 277.56,-44.75 282.44,-45.85 278.54,-40.36 287.31,-46.94 287.31,-46.94"/>
<text text-anchor="middle" x="205" y="-37.8" font-family="Times New Roman,serif" font-size="14.00">11R</text>
</g>
<!-- A&#45;&gt;H -->
<g id="edge3" class="edge">
<title>A&#45;&gt;H</title>
<path fill="none" stroke="deeppink" d="M127.07,-16.52C163.5,-13.8 251.39,-9.49 323,-24 341.85,-27.82 362.42,-34.29 378.6,-39.94"/>
<polygon fill="deeppink" stroke="deeppink" points="388.06,-43.32 377.13,-44.19 383.35,-41.64 378.64,-39.95 378.64,-39.95 378.64,-39.95 383.35,-41.64 380.16,-35.71 388.06,-43.32 388.06,-43.32"/>
<text text-anchor="middle" x="255" y="-19.8" font-family="Times New Roman,serif" font-size="14.00">ΔΔR</text>
</g>
<!-- C&#45;&gt;B -->
<g id="edge7" class="edge">
<title>C&#45;&gt;B</title>
<path fill="none" stroke="deeppink" d="M288.64,-58.99C282.64,-61.85 275.62,-64.89 269,-67 257.5,-70.66 244.45,-73.38 233.22,-75.29"/>
<polygon fill="deeppink" stroke="deeppink" points="223.12,-76.88 232.3,-70.88 228.06,-76.1 233,-75.32 233,-75.32 233,-75.32 228.06,-76.1 233.7,-79.77 223.12,-76.88 223.12,-76.88"/>
<text text-anchor="middle" x="255" y="-76.8" font-family="Times New Roman,serif" font-size="14.00">00R</text>
</g>
<!-- C&#45;&gt;H -->
<g id="edge8" class="edge">
<title>C&#45;&gt;H</title>
<path fill="none" stroke="deeppink" d="M323.3,-51C337.8,-51 358.87,-51 376.37,-51"/>
<polygon fill="deeppink" stroke="deeppink" points="386.71,-51 376.71,-55.5 381.71,-51 376.71,-51 376.71,-51 376.71,-51 381.71,-51 376.71,-46.5 386.71,-51 386.71,-51"/>
<text text-anchor="middle" x="355" y="-54.8" font-family="Times New Roman,serif" font-size="14.00">ΔΔR</text>
</g>
</g>
</svg>
