<?xml version="1.0" encoding="UTF-8" standalone="no"?>
<!DOCTYPE svg PUBLIC "-//W3C//DTD SVG 1.1//EN"
 "http://www.w3.org/Graphics/SVG/1.1/DTD/svg11.dtd">
<!-- Generated by graphviz version 2.50.0 (20211204.2007)
 -->
<!-- Title: Aceita sequencias binárioas com mesma quantidade de 0&#39;s e 1&#39;s Pages: 1 -->
<svg width="339pt" height="343pt"
 viewBox="0.00 0.00 339.00 343.00" xmlns="http://www.w3.org/2000/svg" xmlns:xlink="http://www.w3.org/1999/xlink">
<g id="graph0" class="graph" transform="scale(1 1) rotate(0) translate(4 339)">
<title>Aceita sequencias binárioas com mesma quantidade de 0&#39;s e 1&#39;s</title>
<polygon fill="white" stroke="transparent" points="-4,4 -4,-339 335,-339 335,4 -4,4"/>
<!-- Start -->
<g id="node1" class="node">
<title>Start</title>
</g>
<!-- A -->
<g id="node2" class="node">
<title>A</title>
<ellipse fill="none" stroke="deeppink" cx="109" cy="-212" rx="18" ry="18"/>
<text text-anchor="middle" x="109" y="-208.3" font-family="Times New Roman,serif" font-size="14.00">A</text>
</g>
<!-- Start&#45;&gt;A -->
<g id="edge1" class="edge">
<title>Start&#45;&gt;A</title>
<path fill="none" stroke="deeppink" d="M54.19,-212C62.65,-212 72.05,-212 80.6,-212"/>
<polygon fill="deeppink" stroke="deeppink" points="90.83,-212 80.83,-216.5 85.83,-212 80.83,-212 80.83,-212 80.83,-212 85.83,-212 80.83,-207.5 90.83,-212 90.83,-212"/>
</g>
<!-- A&#45;&gt;A -->
<g id="edge2" class="edge">
<title>A&#45;&gt;A</title>
<path fill="none" stroke="deeppink" d="M102.62,-229.04C101.32,-238.86 103.45,-248 109,-248 112.47,-248 114.6,-244.43 115.4,-239.35"/>
<polygon fill="deeppink" stroke="deeppink" points="115.38,-229.04 119.9,-239.03 115.39,-234.04 115.4,-239.04 115.4,-239.04 115.4,-239.04 115.39,-234.04 110.9,-239.05 115.38,-229.04 115.38,-229.04"/>
<text text-anchor="middle" x="109" y="-251.8" font-family="Times New Roman,serif" font-size="14.00">XXR</text>
</g>
<!-- B -->
<g id="node4" class="node">
<title>B</title>
<ellipse fill="none" stroke="deeppink" cx="212" cy="-251" rx="18" ry="18"/>
<text text-anchor="middle" x="212" y="-247.3" font-family="Times New Roman,serif" font-size="14.00">B</text>
</g>
<!-- A&#45;&gt;B -->
<g id="edge3" class="edge">
<title>A&#45;&gt;B</title>
<path fill="none" stroke="deeppink" d="M120.27,-226.47C126.49,-234.01 135.13,-242.56 145,-247 156.98,-252.39 171.44,-253.76 183.77,-253.63"/>
<polygon fill="deeppink" stroke="deeppink" points="193.94,-253.19 184.15,-258.12 188.95,-253.41 183.95,-253.62 183.95,-253.62 183.95,-253.62 188.95,-253.41 183.76,-249.13 193.94,-253.19 193.94,-253.19"/>
<text text-anchor="middle" x="158.5" y="-256.8" font-family="Times New Roman,serif" font-size="14.00">0XR</text>
</g>
<!-- A&#45;&gt;B -->
<g id="edge4" class="edge">
<title>A&#45;&gt;B</title>
<path fill="none" stroke="deeppink" d="M126.99,-215.04C139.69,-217.64 157.31,-221.92 172,-228 177.36,-230.22 182.86,-233.07 187.99,-236"/>
<polygon fill="deeppink" stroke="deeppink" points="196.69,-241.25 185.8,-239.94 192.41,-238.67 188.13,-236.08 188.13,-236.08 188.13,-236.08 192.41,-238.67 190.45,-232.23 196.69,-241.25 196.69,-241.25"/>
<text text-anchor="middle" x="158.5" y="-231.8" font-family="Times New Roman,serif" font-size="14.00">1XR</text>
</g>
<!-- H -->
<g id="node6" class="node">
<title>H</title>
<ellipse fill="none" stroke="deeppink" cx="212" cy="-193" rx="18" ry="18"/>
<ellipse fill="none" stroke="deeppink" cx="212" cy="-193" rx="22" ry="22"/>
<text text-anchor="middle" x="212" y="-189.3" font-family="Times New Roman,serif" font-size="14.00">H</text>
</g>
<!-- A&#45;&gt;H -->
<g id="edge5" class="edge">
<title>A&#45;&gt;H</title>
<path fill="none" stroke="deeppink" d="M124.73,-202.51C130.77,-199.15 137.97,-195.76 145,-194 156.12,-191.22 168.63,-190.46 179.74,-190.56"/>
<polygon fill="deeppink" stroke="deeppink" points="189.88,-190.89 179.73,-195.07 184.88,-190.73 179.88,-190.57 179.88,-190.57 179.88,-190.57 184.88,-190.73 180.03,-186.07 189.88,-190.89 189.88,-190.89"/>
<text text-anchor="middle" x="158.5" y="-197.8" font-family="Times New Roman,serif" font-size="14.00">ΔΔS</text>
</g>
<!-- C -->
<g id="node3" class="node">
<title>C</title>
<ellipse fill="none" stroke="deeppink" cx="313" cy="-138" rx="18" ry="18"/>
<text text-anchor="middle" x="313" y="-134.3" font-family="Times New Roman,serif" font-size="14.00">C</text>
</g>
<!-- C&#45;&gt;A -->
<g id="edge12" class="edge">
<title>C&#45;&gt;A</title>
<path fill="none" stroke="deeppink" d="M294.71,-136.11C270.39,-134.15 225.14,-133.05 190,-147 165.92,-156.56 143.49,-176.09 128.55,-191.26"/>
<polygon fill="deeppink" stroke="deeppink" points="121.45,-198.72 125.08,-188.38 124.89,-195.1 128.34,-191.48 128.34,-191.48 128.34,-191.48 124.89,-195.1 131.6,-194.58 121.45,-198.72 121.45,-198.72"/>
<text text-anchor="middle" x="212" y="-150.8" font-family="Times New Roman,serif" font-size="14.00">ΔΔR</text>
</g>
<!-- C&#45;&gt;C -->
<g id="edge9" class="edge">
<title>C&#45;&gt;C</title>
<path fill="none" stroke="deeppink" d="M310.12,-155.78C309.64,-165.31 310.59,-174 313,-174 314.47,-174 315.4,-170.77 315.79,-166.1"/>
<polygon fill="deeppink" stroke="deeppink" points="315.88,-155.78 320.29,-165.82 315.83,-160.78 315.79,-165.78 315.79,-165.78 315.79,-165.78 315.83,-160.78 311.29,-165.74 315.88,-155.78 315.88,-155.78"/>
<text text-anchor="middle" x="313" y="-177.8" font-family="Times New Roman,serif" font-size="14.00">00L</text>
</g>
<!-- C&#45;&gt;C -->
<g id="edge10" class="edge">
<title>C&#45;&gt;C</title>
<path fill="none" stroke="deeppink" d="M308.27,-155.42C305.58,-172.79 307.16,-192 313,-192 317.7,-192 319.64,-179.56 318.81,-165.65"/>
<polygon fill="deeppink" stroke="deeppink" points="317.73,-155.42 323.26,-164.89 318.25,-160.39 318.78,-165.36 318.78,-165.36 318.78,-165.36 318.25,-160.39 314.31,-165.84 317.73,-155.42 317.73,-155.42"/>
<text text-anchor="middle" x="313" y="-195.8" font-family="Times New Roman,serif" font-size="14.00">XXL</text>
</g>
<!-- C&#45;&gt;C -->
<g id="edge11" class="edge">
<title>C&#45;&gt;C</title>
<path fill="none" stroke="deeppink" d="M307.09,-155.35C301.51,-179.82 303.48,-210 313,-210 321.25,-210 323.83,-187.3 320.73,-165.32"/>
<polygon fill="deeppink" stroke="deeppink" points="318.91,-155.35 325.14,-164.38 319.81,-160.27 320.71,-165.19 320.71,-165.19 320.71,-165.19 319.81,-160.27 316.28,-166 318.91,-155.35 318.91,-155.35"/>
<text text-anchor="middle" x="313" y="-213.8" font-family="Times New Roman,serif" font-size="14.00">11L</text>
</g>
<!-- B&#45;&gt;C -->
<g id="edge7" class="edge">
<title>B&#45;&gt;C</title>
<path fill="none" stroke="deeppink" d="M224.75,-237.59C241.81,-218.12 273.6,-181.83 293.73,-158.85"/>
<polygon fill="deeppink" stroke="deeppink" points="300.58,-151.04 297.37,-161.53 297.28,-154.8 293.99,-158.56 293.99,-158.56 293.99,-158.56 297.28,-154.8 290.6,-155.6 300.58,-151.04 300.58,-151.04"/>
<text text-anchor="middle" x="264.5" y="-207.8" font-family="Times New Roman,serif" font-size="14.00">1XL</text>
</g>
<!-- B&#45;&gt;B -->
<g id="edge6" class="edge">
<title>B&#45;&gt;B</title>
<path fill="none" stroke="deeppink" d="M207.36,-268.41C206.49,-278.09 208.04,-287 212,-287 214.48,-287 216.01,-283.52 216.6,-278.54"/>
<polygon fill="deeppink" stroke="deeppink" points="216.64,-268.41 221.1,-278.43 216.62,-273.41 216.6,-278.41 216.6,-278.41 216.6,-278.41 216.62,-273.41 212.1,-278.39 216.64,-268.41 216.64,-268.41"/>
<text text-anchor="middle" x="212" y="-290.8" font-family="Times New Roman,serif" font-size="14.00">00R</text>
</g>
<!-- B&#45;&gt;B -->
<g id="edge8" class="edge">
<title>B&#45;&gt;B</title>
<path fill="none" stroke="deeppink" d="M204.54,-267.59C199.86,-285.17 202.35,-305 212,-305 219.84,-305 222.95,-291.91 221.34,-277.57"/>
<polygon fill="deeppink" stroke="deeppink" points="219.46,-267.59 225.73,-276.58 220.38,-272.5 221.31,-277.41 221.31,-277.41 221.31,-277.41 220.38,-272.5 216.88,-278.24 219.46,-267.59 219.46,-267.59"/>
<text text-anchor="middle" x="212" y="-308.8" font-family="Times New Roman,serif" font-size="14.00">XXR</text>
</g>
<!-- D -->
<g id="node5" class="node">
<title>D</title>
<ellipse fill="none" stroke="deeppink" cx="212" cy="-18" rx="18" ry="18"/>
<text text-anchor="middle" x="212" y="-14.3" font-family="Times New Roman,serif" font-size="14.00">D</text>
</g>
<!-- D&#45;&gt;C -->
<g id="edge15" class="edge">
<title>D&#45;&gt;C</title>
<path fill="none" stroke="deeppink" d="M224.36,-31.77C241.44,-52.47 273.9,-91.82 294.16,-116.38"/>
<polygon fill="deeppink" stroke="deeppink" points="300.78,-124.4 290.94,-119.54 297.59,-120.54 294.41,-116.68 294.41,-116.68 294.41,-116.68 297.59,-120.54 297.88,-113.82 300.78,-124.4 300.78,-124.4"/>
<text text-anchor="middle" x="264.5" y="-95.8" font-family="Times New Roman,serif" font-size="14.00">0XL</text>
</g>
<!-- D&#45;&gt;D -->
<g id="edge13" class="edge">
<title>D&#45;&gt;D</title>
<path fill="none" stroke="deeppink" d="M207.36,-35.41C206.49,-45.09 208.04,-54 212,-54 214.48,-54 216.01,-50.52 216.6,-45.54"/>
<polygon fill="deeppink" stroke="deeppink" points="216.64,-35.41 221.1,-45.43 216.62,-40.41 216.6,-45.41 216.6,-45.41 216.6,-45.41 216.62,-40.41 212.1,-45.39 216.64,-35.41 216.64,-35.41"/>
<text text-anchor="middle" x="212" y="-57.8" font-family="Times New Roman,serif" font-size="14.00">11R</text>
</g>
<!-- D&#45;&gt;D -->
<g id="edge14" class="edge">
<title>D&#45;&gt;D</title>
<path fill="none" stroke="deeppink" d="M204.54,-34.59C199.86,-52.17 202.35,-72 212,-72 219.84,-72 222.95,-58.91 221.34,-44.57"/>
<polygon fill="deeppink" stroke="deeppink" points="219.46,-34.59 225.73,-43.58 220.38,-39.5 221.31,-44.41 221.31,-44.41 221.31,-44.41 220.38,-39.5 216.88,-45.24 219.46,-34.59 219.46,-34.59"/>
<text text-anchor="middle" x="212" y="-75.8" font-family="Times New Roman,serif" font-size="14.00">XXR</text>
</g>
</g>
</svg>
