<?xml version="1.0" encoding="UTF-8" standalone="no"?>
<!DOCTYPE svg PUBLIC "-//W3C//DTD SVG 1.1//EN"
 "http://www.w3.org/Graphics/SVG/1.1/DTD/svg11.dtd">
<!-- Generated by graphviz version 2.50.0 (20211204.2007)
 -->
<!-- Title: Aceita 0n1n2n Pages: 1 -->
<svg width="442pt" height="260pt"
 viewBox="0.00 0.00 442.00 260.00" xmlns="http://www.w3.org/2000/svg" xmlns:xlink="http://www.w3.org/1999/xlink">
<g id="graph0" class="graph" transform="scale(1 1) rotate(0) translate(4 256)">
<title>Aceita 0n1n2n</title>
<polygon fill="white" stroke="transparent" points="-4,4 -4,-256 438,-256 438,4 -4,4"/>
<!-- Start -->
<g id="node1" class="node">
<title>Start</title>
</g>
<!-- A -->
<g id="node5" class="node">
<title>A</title>
<ellipse fill="none" stroke="deeppink" cx="109" cy="-48" rx="18" ry="18"/>
<text text-anchor="middle" x="109" y="-44.3" font-family="Times New Roman,serif" font-size="14.00">A</text>
</g>
<!-- Start&#45;&gt;A -->
<g id="edge1" class="edge">
<title>Start&#45;&gt;A</title>
<path fill="none" stroke="deeppink" d="M54.19,-48C62.65,-48 72.05,-48 80.6,-48"/>
<polygon fill="deeppink" stroke="deeppink" points="90.83,-48 80.83,-52.5 85.83,-48 80.83,-48 80.83,-48 80.83,-48 85.83,-48 80.83,-43.5 90.83,-48 90.83,-48"/>
</g>
<!-- C -->
<g id="node2" class="node">
<title>C</title>
<ellipse fill="none" stroke="deeppink" cx="315" cy="-139" rx="18" ry="18"/>
<text text-anchor="middle" x="315" y="-135.3" font-family="Times New Roman,serif" font-size="14.00">C</text>
</g>
<!-- C&#45;&gt;C -->
<g id="edge7" class="edge">
<title>C&#45;&gt;C</title>
<path fill="none" stroke="deeppink" d="M310.36,-156.41C309.49,-166.09 311.04,-175 315,-175 317.48,-175 319.01,-171.52 319.6,-166.54"/>
<polygon fill="deeppink" stroke="deeppink" points="319.64,-156.41 324.1,-166.43 319.62,-161.41 319.6,-166.41 319.6,-166.41 319.6,-166.41 319.62,-161.41 315.1,-166.39 319.64,-156.41 319.64,-156.41"/>
<text text-anchor="middle" x="315" y="-178.8" font-family="Times New Roman,serif" font-size="14.00">11R</text>
</g>
<!-- C&#45;&gt;C -->
<g id="edge8" class="edge">
<title>C&#45;&gt;C</title>
<path fill="none" stroke="deeppink" d="M307.54,-155.59C302.86,-173.17 305.35,-193 315,-193 322.84,-193 325.95,-179.91 324.34,-165.57"/>
<polygon fill="deeppink" stroke="deeppink" points="322.46,-155.59 328.73,-164.58 323.38,-160.5 324.31,-165.41 324.31,-165.41 324.31,-165.41 323.38,-160.5 319.88,-166.24 322.46,-155.59 322.46,-155.59"/>
<text text-anchor="middle" x="315" y="-196.8" font-family="Times New Roman,serif" font-size="14.00">YYR</text>
</g>
<!-- D -->
<g id="node6" class="node">
<title>D</title>
<ellipse fill="none" stroke="deeppink" cx="416" cy="-18" rx="18" ry="18"/>
<text text-anchor="middle" x="416" y="-14.3" font-family="Times New Roman,serif" font-size="14.00">D</text>
</g>
<!-- C&#45;&gt;D -->
<g id="edge9" class="edge">
<title>C&#45;&gt;D</title>
<path fill="none" stroke="deeppink" d="M327.36,-125.12C344.51,-104.15 377.18,-64.22 397.43,-39.48"/>
<polygon fill="deeppink" stroke="deeppink" points="403.78,-31.72 400.93,-42.31 400.61,-35.59 397.44,-39.46 397.44,-39.46 397.44,-39.46 400.61,-35.59 393.96,-36.61 403.78,-31.72 403.78,-31.72"/>
<text text-anchor="middle" x="367.5" y="-92.8" font-family="Times New Roman,serif" font-size="14.00">2YL</text>
</g>
<!-- B -->
<g id="node3" class="node">
<title>B</title>
<ellipse fill="none" stroke="deeppink" cx="211" cy="-168" rx="18" ry="18"/>
<text text-anchor="middle" x="211" y="-164.3" font-family="Times New Roman,serif" font-size="14.00">B</text>
</g>
<!-- B&#45;&gt;C -->
<g id="edge6" class="edge">
<title>B&#45;&gt;C</title>
<path fill="none" stroke="deeppink" d="M228.39,-163.34C244.35,-158.8 268.89,-151.83 287.6,-146.5"/>
<polygon fill="deeppink" stroke="deeppink" points="297.31,-143.74 288.93,-150.81 292.5,-145.11 287.69,-146.48 287.69,-146.48 287.69,-146.48 292.5,-145.11 286.46,-142.15 297.31,-143.74 297.31,-143.74"/>
<text text-anchor="middle" x="261" y="-160.8" font-family="Times New Roman,serif" font-size="14.00">1XR</text>
</g>
<!-- B&#45;&gt;B -->
<g id="edge4" class="edge">
<title>B&#45;&gt;B</title>
<path fill="none" stroke="deeppink" d="M206.51,-185.78C205.74,-195.31 207.24,-204 211,-204 213.29,-204 214.74,-200.77 215.35,-196.1"/>
<polygon fill="deeppink" stroke="deeppink" points="215.49,-185.78 219.86,-195.84 215.43,-190.78 215.36,-195.78 215.36,-195.78 215.36,-195.78 215.43,-190.78 210.86,-195.72 215.49,-185.78 215.49,-185.78"/>
<text text-anchor="middle" x="211" y="-207.8" font-family="Times New Roman,serif" font-size="14.00">00R</text>
</g>
<!-- B&#45;&gt;B -->
<g id="edge5" class="edge">
<title>B&#45;&gt;B</title>
<path fill="none" stroke="deeppink" d="M203.82,-184.59C199.33,-202.17 201.72,-222 211,-222 218.54,-222 221.53,-208.91 219.98,-194.57"/>
<polygon fill="deeppink" stroke="deeppink" points="218.18,-184.59 224.38,-193.63 219.06,-189.51 219.95,-194.43 219.95,-194.43 219.95,-194.43 219.06,-189.51 215.52,-195.23 218.18,-184.59 218.18,-184.59"/>
<text text-anchor="middle" x="211" y="-225.8" font-family="Times New Roman,serif" font-size="14.00">XXR</text>
</g>
<!-- E -->
<g id="node4" class="node">
<title>E</title>
<ellipse fill="none" stroke="deeppink" cx="211" cy="-48" rx="18" ry="18"/>
<text text-anchor="middle" x="211" y="-44.3" font-family="Times New Roman,serif" font-size="14.00">E</text>
</g>
<!-- E&#45;&gt;E -->
<g id="edge15" class="edge">
<title>E&#45;&gt;E</title>
<path fill="none" stroke="deeppink" d="M206.51,-65.78C205.74,-75.31 207.24,-84 211,-84 213.29,-84 214.74,-80.77 215.35,-76.1"/>
<polygon fill="deeppink" stroke="deeppink" points="215.49,-65.78 219.86,-75.84 215.43,-70.78 215.36,-75.78 215.36,-75.78 215.36,-75.78 215.43,-70.78 210.86,-75.72 215.49,-65.78 215.49,-65.78"/>
<text text-anchor="middle" x="211" y="-87.8" font-family="Times New Roman,serif" font-size="14.00">XXR</text>
</g>
<!-- E&#45;&gt;E -->
<g id="edge16" class="edge">
<title>E&#45;&gt;E</title>
<path fill="none" stroke="deeppink" d="M203.82,-64.59C199.33,-82.17 201.72,-102 211,-102 218.54,-102 221.53,-88.91 219.98,-74.57"/>
<polygon fill="deeppink" stroke="deeppink" points="218.18,-64.59 224.38,-73.63 219.06,-69.51 219.95,-74.43 219.95,-74.43 219.95,-74.43 219.06,-69.51 215.52,-75.23 218.18,-64.59 218.18,-64.59"/>
<text text-anchor="middle" x="211" y="-105.8" font-family="Times New Roman,serif" font-size="14.00">YYR</text>
</g>
<!-- H -->
<g id="node7" class="node">
<title>H</title>
<ellipse fill="none" stroke="deeppink" cx="315" cy="-52" rx="18" ry="18"/>
<ellipse fill="none" stroke="deeppink" cx="315" cy="-52" rx="22" ry="22"/>
<text text-anchor="middle" x="315" y="-48.3" font-family="Times New Roman,serif" font-size="14.00">H</text>
</g>
<!-- E&#45;&gt;H -->
<g id="edge17" class="edge">
<title>E&#45;&gt;H</title>
<path fill="none" stroke="deeppink" d="M229.3,-48.68C243.8,-49.25 264.87,-50.07 282.37,-50.76"/>
<polygon fill="deeppink" stroke="deeppink" points="292.71,-51.17 282.55,-55.27 287.72,-50.97 282.72,-50.77 282.72,-50.77 282.72,-50.77 287.72,-50.97 282.9,-46.28 292.71,-51.17 292.71,-51.17"/>
<text text-anchor="middle" x="261" y="-53.8" font-family="Times New Roman,serif" font-size="14.00">ΔΔS</text>
</g>
<!-- A&#45;&gt;B -->
<g id="edge2" class="edge">
<title>A&#45;&gt;B</title>
<path fill="none" stroke="deeppink" d="M121.47,-61.77C138.8,-82.56 171.8,-122.16 192.25,-146.7"/>
<polygon fill="deeppink" stroke="deeppink" points="198.66,-154.4 188.8,-149.59 195.46,-150.55 192.26,-146.71 192.26,-146.71 192.26,-146.71 195.46,-150.55 195.72,-143.83 198.66,-154.4 198.66,-154.4"/>
<text text-anchor="middle" x="160" y="-128.8" font-family="Times New Roman,serif" font-size="14.00">0ΔR</text>
</g>
<!-- A&#45;&gt;E -->
<g id="edge3" class="edge">
<title>A&#45;&gt;E</title>
<path fill="none" stroke="deeppink" d="M127.42,-48C142.62,-48 164.93,-48 182.54,-48"/>
<polygon fill="deeppink" stroke="deeppink" points="192.78,-48 182.78,-52.5 187.78,-48 182.78,-48 182.78,-48 182.78,-48 187.78,-48 182.78,-43.5 192.78,-48 192.78,-48"/>
<text text-anchor="middle" x="160" y="-51.8" font-family="Times New Roman,serif" font-size="14.00">XXR</text>
</g>
<!-- D&#45;&gt;A -->
<g id="edge14" class="edge">
<title>D&#45;&gt;A</title>
<path fill="none" stroke="deeppink" d="M397.86,-16.5C360.38,-13.58 268.49,-8.51 193,-21 173.07,-24.3 151.38,-31.48 135.18,-37.61"/>
<polygon fill="deeppink" stroke="deeppink" points="125.86,-41.25 133.54,-33.42 130.52,-39.43 135.18,-37.62 135.18,-37.62 135.18,-37.62 130.52,-39.43 136.81,-41.81 125.86,-41.25 125.86,-41.25"/>
<text text-anchor="middle" x="261" y="-17.8" font-family="Times New Roman,serif" font-size="14.00">ΔΔR</text>
</g>
<!-- D&#45;&gt;D -->
<g id="edge10" class="edge">
<title>D&#45;&gt;D</title>
<path fill="none" stroke="deeppink" d="M413.83,-36.15C413.5,-45.54 414.22,-54 416,-54 417.09,-54 417.78,-50.86 418.08,-46.28"/>
<polygon fill="deeppink" stroke="deeppink" points="418.17,-36.15 422.58,-46.19 418.13,-41.15 418.08,-46.15 418.08,-46.15 418.08,-46.15 418.13,-41.15 413.58,-46.11 418.17,-36.15 418.17,-36.15"/>
<text text-anchor="middle" x="416" y="-57.8" font-family="Times New Roman,serif" font-size="14.00">00L</text>
</g>
<!-- D&#45;&gt;D -->
<g id="edge11" class="edge">
<title>D&#45;&gt;D</title>
<path fill="none" stroke="deeppink" d="M412.42,-35.7C410.45,-53 411.64,-72 416,-72 419.51,-72 420.96,-59.69 420.37,-45.87"/>
<polygon fill="deeppink" stroke="deeppink" points="419.58,-35.7 424.84,-45.32 419.97,-40.68 420.35,-45.67 420.35,-45.67 420.35,-45.67 419.97,-40.68 415.87,-46.02 419.58,-35.7 419.58,-35.7"/>
<text text-anchor="middle" x="416" y="-75.8" font-family="Times New Roman,serif" font-size="14.00">11L</text>
</g>
<!-- D&#45;&gt;D -->
<g id="edge12" class="edge">
<title>D&#45;&gt;D</title>
<path fill="none" stroke="deeppink" d="M411.51,-35.72C407.4,-60.11 408.9,-90 416,-90 422.16,-90 424.1,-67.53 421.83,-45.64"/>
<polygon fill="deeppink" stroke="deeppink" points="420.49,-35.72 426.29,-45.02 421.16,-40.67 421.83,-45.63 421.83,-45.63 421.83,-45.63 421.16,-40.67 417.37,-46.23 420.49,-35.72 420.49,-35.72"/>
<text text-anchor="middle" x="416" y="-93.8" font-family="Times New Roman,serif" font-size="14.00">XXL</text>
</g>
<!-- D&#45;&gt;D -->
<g id="edge13" class="edge">
<title>D&#45;&gt;D</title>
<path fill="none" stroke="deeppink" d="M410.88,-35.67C404.35,-66.85 406.06,-108 416,-108 424.89,-108 427.19,-75.07 422.91,-45.81"/>
<polygon fill="deeppink" stroke="deeppink" points="421.12,-35.67 427.29,-44.74 421.99,-40.59 422.86,-45.52 422.86,-45.52 422.86,-45.52 421.99,-40.59 418.43,-46.3 421.12,-35.67 421.12,-35.67"/>
<text text-anchor="middle" x="416" y="-111.8" font-family="Times New Roman,serif" font-size="14.00">YYL</text>
</g>
</g>
</svg>
