<?xml version="1.0" encoding="UTF-8" standalone="no"?>
<!DOCTYPE svg PUBLIC "-//W3C//DTD SVG 1.1//EN"
 "http://www.w3.org/Graphics/SVG/1.1/DTD/svg11.dtd">
<!-- Generated by graphviz version 2.50.0 (20211204.2007)
 -->
<!-- Title: Inverte uma sequência Pages: 1 -->
<svg width="731pt" height="328pt"
 viewBox="0.00 0.00 731.00 328.00" xmlns="http://www.w3.org/2000/svg" xmlns:xlink="http://www.w3.org/1999/xlink">
<g id="graph0" class="graph" transform="scale(1 1) rotate(0) translate(4 324)">
<title>Inverte uma sequência</title>
<polygon fill="white" stroke="transparent" points="-4,4 -4,-324 727,-324 727,4 -4,4"/>
<!-- Start -->
<g id="node1" class="node">
<title>Start</title>
</g>
<!-- A -->
<g id="node5" class="node">
<title>A</title>
<ellipse fill="none" stroke="deeppink" cx="109" cy="-126" rx="18" ry="18"/>
<text text-anchor="middle" x="109" y="-122.3" font-family="Times New Roman,serif" font-size="14.00">A</text>
</g>
<!-- Start&#45;&gt;A -->
<g id="edge1" class="edge">
<title>Start&#45;&gt;A</title>
<path fill="none" stroke="deeppink" d="M54.19,-126C62.65,-126 72.05,-126 80.6,-126"/>
<polygon fill="deeppink" stroke="deeppink" points="90.83,-126 80.83,-130.5 85.83,-126 80.83,-126 80.83,-126 80.83,-126 85.83,-126 80.83,-121.5 90.83,-126 90.83,-126"/>
</g>
<!-- H -->
<g id="node2" class="node">
<title>H</title>
<ellipse fill="none" stroke="deeppink" cx="598" cy="-22" rx="18" ry="18"/>
<text text-anchor="middle" x="598" y="-18.3" font-family="Times New Roman,serif" font-size="14.00">H</text>
</g>
<!-- H&#45;&gt;H -->
<g id="edge27" class="edge">
<title>H&#45;&gt;H</title>
<path fill="none" stroke="deeppink" d="M589.64,-38.29C587.62,-48.39 590.41,-58 598,-58 602.86,-58 605.76,-54.06 606.68,-48.57"/>
<polygon fill="deeppink" stroke="deeppink" points="606.36,-38.29 611.17,-48.15 606.52,-43.29 606.67,-48.29 606.67,-48.29 606.67,-48.29 606.52,-43.29 602.17,-48.42 606.36,-38.29 606.36,-38.29"/>
<text text-anchor="middle" x="598" y="-61.8" font-family="Times New Roman,serif" font-size="14.00">XΔR</text>
</g>
<!-- I -->
<g id="node10" class="node">
<title>I</title>
<ellipse fill="none" stroke="deeppink" cx="701" cy="-22" rx="18" ry="18"/>
<ellipse fill="none" stroke="deeppink" cx="701" cy="-22" rx="22" ry="22"/>
<text text-anchor="middle" x="701" y="-18.3" font-family="Times New Roman,serif" font-size="14.00">I</text>
</g>
<!-- H&#45;&gt;I -->
<g id="edge28" class="edge">
<title>H&#45;&gt;I</title>
<path fill="none" stroke="deeppink" d="M616.13,-22C630.49,-22 651.35,-22 668.68,-22"/>
<polygon fill="deeppink" stroke="deeppink" points="678.92,-22 668.92,-26.5 673.92,-22 668.92,-22 668.92,-22 668.92,-22 673.92,-22 668.92,-17.5 678.92,-22 678.92,-22"/>
<text text-anchor="middle" x="647.5" y="-25.8" font-family="Times New Roman,serif" font-size="14.00">#ΔR</text>
</g>
<!-- B -->
<g id="node3" class="node">
<title>B</title>
<ellipse fill="none" stroke="deeppink" cx="206" cy="-126" rx="18" ry="18"/>
<text text-anchor="middle" x="206" y="-122.3" font-family="Times New Roman,serif" font-size="14.00">B</text>
</g>
<!-- F -->
<g id="node7" class="node">
<title>F</title>
<ellipse fill="none" stroke="deeppink" cx="305" cy="-37" rx="18" ry="18"/>
<text text-anchor="middle" x="305" y="-33.3" font-family="Times New Roman,serif" font-size="14.00">F</text>
</g>
<!-- B&#45;&gt;F -->
<g id="edge6" class="edge">
<title>B&#45;&gt;F</title>
<path fill="none" stroke="deeppink" d="M220.08,-114C236.37,-99.05 264.38,-73.35 283.52,-55.79"/>
<polygon fill="deeppink" stroke="deeppink" points="291.13,-48.81 286.8,-58.89 287.44,-52.19 283.76,-55.57 283.76,-55.57 283.76,-55.57 287.44,-52.19 280.71,-52.26 291.13,-48.81 291.13,-48.81"/>
<text text-anchor="middle" x="255.5" y="-95.8" font-family="Times New Roman,serif" font-size="14.00">0XR</text>
</g>
<!-- C -->
<g id="node8" class="node">
<title>C</title>
<ellipse fill="none" stroke="deeppink" cx="598" cy="-170" rx="18" ry="18"/>
<text text-anchor="middle" x="598" y="-166.3" font-family="Times New Roman,serif" font-size="14.00">C</text>
</g>
<!-- B&#45;&gt;C -->
<g id="edge5" class="edge">
<title>B&#45;&gt;C</title>
<path fill="none" stroke="deeppink" d="M215.03,-141.91C229.2,-167.51 261.26,-215 304,-215 304,-215 304,-215 499,-215 527.12,-215 555.98,-199.51 575.03,-186.7"/>
<polygon fill="deeppink" stroke="deeppink" points="583.3,-180.89 577.71,-190.32 579.21,-183.77 575.12,-186.64 575.12,-186.64 575.12,-186.64 579.21,-183.77 572.53,-182.96 583.3,-180.89 583.3,-180.89"/>
<text text-anchor="middle" x="402" y="-218.8" font-family="Times New Roman,serif" font-size="14.00">1XR</text>
</g>
<!-- D -->
<g id="node4" class="node">
<title>D</title>
<ellipse fill="none" stroke="deeppink" cx="701" cy="-125" rx="18" ry="18"/>
<text text-anchor="middle" x="701" y="-121.3" font-family="Times New Roman,serif" font-size="14.00">D</text>
</g>
<!-- D&#45;&gt;D -->
<g id="edge12" class="edge">
<title>D&#45;&gt;D</title>
<path fill="none" stroke="deeppink" d="M696.36,-142.41C695.49,-152.09 697.04,-161 701,-161 703.48,-161 705.01,-157.52 705.6,-152.54"/>
<polygon fill="deeppink" stroke="deeppink" points="705.64,-142.41 710.1,-152.43 705.62,-147.41 705.6,-152.41 705.6,-152.41 705.6,-152.41 705.62,-147.41 701.1,-152.39 705.64,-142.41 705.64,-142.41"/>
<text text-anchor="middle" x="701" y="-164.8" font-family="Times New Roman,serif" font-size="14.00">11L</text>
</g>
<!-- D&#45;&gt;D -->
<g id="edge13" class="edge">
<title>D&#45;&gt;D</title>
<path fill="none" stroke="deeppink" d="M693.54,-141.59C688.86,-159.17 691.35,-179 701,-179 708.84,-179 711.95,-165.91 710.34,-151.57"/>
<polygon fill="deeppink" stroke="deeppink" points="708.46,-141.59 714.73,-150.58 709.38,-146.5 710.31,-151.41 710.31,-151.41 710.31,-151.41 709.38,-146.5 705.88,-152.24 708.46,-141.59 708.46,-141.59"/>
<text text-anchor="middle" x="701" y="-182.8" font-family="Times New Roman,serif" font-size="14.00">00L</text>
</g>
<!-- E -->
<g id="node9" class="node">
<title>E</title>
<ellipse fill="none" stroke="deeppink" cx="498" cy="-109" rx="18" ry="18"/>
<text text-anchor="middle" x="498" y="-105.3" font-family="Times New Roman,serif" font-size="14.00">E</text>
</g>
<!-- D&#45;&gt;E -->
<g id="edge14" class="edge">
<title>D&#45;&gt;E</title>
<path fill="none" stroke="deeppink" d="M682.91,-123.64C648.01,-120.86 568.32,-114.52 526.22,-111.17"/>
<polygon fill="deeppink" stroke="deeppink" points="516.14,-110.36 526.46,-106.67 521.12,-110.76 526.11,-111.16 526.11,-111.16 526.11,-111.16 521.12,-110.76 525.75,-115.64 516.14,-110.36 516.14,-110.36"/>
<text text-anchor="middle" x="598" y="-121.8" font-family="Times New Roman,serif" font-size="14.00">##L</text>
</g>
<!-- A&#45;&gt;B -->
<g id="edge4" class="edge">
<title>A&#45;&gt;B</title>
<path fill="none" stroke="deeppink" d="M127.42,-126C141.35,-126 161.14,-126 177.24,-126"/>
<polygon fill="deeppink" stroke="deeppink" points="187.69,-126 177.69,-130.5 182.69,-126 177.69,-126 177.69,-126 177.69,-126 182.69,-126 177.69,-121.5 187.69,-126 187.69,-126"/>
<text text-anchor="middle" x="157.5" y="-129.8" font-family="Times New Roman,serif" font-size="14.00">Δ#L</text>
</g>
<!-- A&#45;&gt;A -->
<g id="edge2" class="edge">
<title>A&#45;&gt;A</title>
<path fill="none" stroke="deeppink" d="M105.76,-143.78C105.21,-153.31 106.29,-162 109,-162 110.65,-162 111.69,-158.77 112.13,-154.1"/>
<polygon fill="deeppink" stroke="deeppink" points="112.24,-143.78 116.64,-153.83 112.19,-148.78 112.14,-153.78 112.14,-153.78 112.14,-153.78 112.19,-148.78 107.64,-153.74 112.24,-143.78 112.24,-143.78"/>
<text text-anchor="middle" x="109" y="-165.8" font-family="Times New Roman,serif" font-size="14.00">00R</text>
</g>
<!-- A&#45;&gt;A -->
<g id="edge3" class="edge">
<title>A&#45;&gt;A</title>
<path fill="none" stroke="deeppink" d="M103.68,-143.42C100.65,-160.79 102.43,-180 109,-180 114.29,-180 116.47,-167.56 115.54,-153.65"/>
<polygon fill="deeppink" stroke="deeppink" points="114.32,-143.42 119.97,-152.81 114.91,-148.38 115.51,-153.35 115.51,-153.35 115.51,-153.35 114.91,-148.38 111.04,-153.88 114.32,-143.42 114.32,-143.42"/>
<text text-anchor="middle" x="109" y="-183.8" font-family="Times New Roman,serif" font-size="14.00">11R</text>
</g>
<!-- G -->
<g id="node6" class="node">
<title>G</title>
<ellipse fill="none" stroke="deeppink" cx="402" cy="-66" rx="18" ry="18"/>
<text text-anchor="middle" x="402" y="-62.3" font-family="Times New Roman,serif" font-size="14.00">G</text>
</g>
<!-- G&#45;&gt;G -->
<g id="edge24" class="edge">
<title>G&#45;&gt;G</title>
<path fill="none" stroke="deeppink" d="M397.69,-83.78C396.95,-93.31 398.39,-102 402,-102 404.2,-102 405.59,-98.77 406.18,-94.1"/>
<polygon fill="deeppink" stroke="deeppink" points="406.31,-83.78 410.68,-93.84 406.25,-88.78 406.18,-93.78 406.18,-93.78 406.18,-93.78 406.25,-88.78 401.68,-93.72 406.31,-83.78 406.31,-83.78"/>
<text text-anchor="middle" x="402" y="-105.8" font-family="Times New Roman,serif" font-size="14.00">11L</text>
</g>
<!-- G&#45;&gt;G -->
<g id="edge25" class="edge">
<title>G&#45;&gt;G</title>
<path fill="none" stroke="deeppink" d="M395.04,-82.86C390.82,-100.38 393.14,-120 402,-120 409.2,-120 412.08,-107.05 410.64,-92.79"/>
<polygon fill="deeppink" stroke="deeppink" points="408.96,-82.86 415.07,-91.97 409.79,-87.79 410.63,-92.72 410.63,-92.72 410.63,-92.72 409.79,-87.79 406.19,-93.48 408.96,-82.86 408.96,-82.86"/>
<text text-anchor="middle" x="402" y="-123.8" font-family="Times New Roman,serif" font-size="14.00">00L</text>
</g>
<!-- G&#45;&gt;E -->
<g id="edge26" class="edge">
<title>G&#45;&gt;E</title>
<path fill="none" stroke="deeppink" d="M418.95,-73.29C433.48,-79.94 455.19,-89.88 472.03,-97.58"/>
<polygon fill="deeppink" stroke="deeppink" points="481.29,-101.81 470.32,-101.75 476.74,-99.73 472.2,-97.65 472.2,-97.65 472.2,-97.65 476.74,-99.73 474.07,-93.56 481.29,-101.81 481.29,-101.81"/>
<text text-anchor="middle" x="450" y="-95.8" font-family="Times New Roman,serif" font-size="14.00">##L</text>
</g>
<!-- F&#45;&gt;G -->
<g id="edge23" class="edge">
<title>F&#45;&gt;G</title>
<path fill="none" stroke="deeppink" d="M322.55,-42.05C336.99,-46.46 358.19,-52.93 374.91,-58.04"/>
<polygon fill="deeppink" stroke="deeppink" points="384.64,-61.01 373.76,-62.39 379.86,-59.55 375.08,-58.09 375.08,-58.09 375.08,-58.09 379.86,-59.55 376.39,-53.78 384.64,-61.01 384.64,-61.01"/>
<text text-anchor="middle" x="353.5" y="-57.8" font-family="Times New Roman,serif" font-size="14.00">Δ0L</text>
</g>
<!-- F&#45;&gt;F -->
<g id="edge19" class="edge">
<title>F&#45;&gt;F</title>
<path fill="none" stroke="deeppink" d="M302.83,-55.15C302.5,-64.54 303.22,-73 305,-73 306.09,-73 306.78,-69.86 307.08,-65.28"/>
<polygon fill="deeppink" stroke="deeppink" points="307.17,-55.15 311.58,-65.19 307.13,-60.15 307.08,-65.15 307.08,-65.15 307.08,-65.15 307.13,-60.15 302.58,-65.11 307.17,-55.15 307.17,-55.15"/>
<text text-anchor="middle" x="305" y="-76.8" font-family="Times New Roman,serif" font-size="14.00">XXR</text>
</g>
<!-- F&#45;&gt;F -->
<g id="edge20" class="edge">
<title>F&#45;&gt;F</title>
<path fill="none" stroke="deeppink" d="M301.42,-54.7C299.45,-72 300.64,-91 305,-91 308.51,-91 309.96,-78.69 309.37,-64.87"/>
<polygon fill="deeppink" stroke="deeppink" points="308.58,-54.7 313.84,-64.32 308.97,-59.68 309.35,-64.67 309.35,-64.67 309.35,-64.67 308.97,-59.68 304.87,-65.02 308.58,-54.7 308.58,-54.7"/>
<text text-anchor="middle" x="305" y="-94.8" font-family="Times New Roman,serif" font-size="14.00">##R</text>
</g>
<!-- F&#45;&gt;F -->
<g id="edge21" class="edge">
<title>F&#45;&gt;F</title>
<path fill="none" stroke="deeppink" d="M300.51,-54.72C296.4,-79.11 297.9,-109 305,-109 311.16,-109 313.1,-86.53 310.83,-64.64"/>
<polygon fill="deeppink" stroke="deeppink" points="309.49,-54.72 315.29,-64.02 310.16,-59.67 310.83,-64.63 310.83,-64.63 310.83,-64.63 310.16,-59.67 306.37,-65.23 309.49,-54.72 309.49,-54.72"/>
<text text-anchor="middle" x="305" y="-112.8" font-family="Times New Roman,serif" font-size="14.00">00R</text>
</g>
<!-- F&#45;&gt;F -->
<g id="edge22" class="edge">
<title>F&#45;&gt;F</title>
<path fill="none" stroke="deeppink" d="M299.88,-54.67C293.35,-85.85 295.06,-127 305,-127 313.89,-127 316.19,-94.07 311.91,-64.81"/>
<polygon fill="deeppink" stroke="deeppink" points="310.12,-54.67 316.29,-63.74 310.99,-59.59 311.86,-64.52 311.86,-64.52 311.86,-64.52 310.99,-59.59 307.43,-65.3 310.12,-54.67 310.12,-54.67"/>
<text text-anchor="middle" x="305" y="-130.8" font-family="Times New Roman,serif" font-size="14.00">11R</text>
</g>
<!-- C&#45;&gt;D -->
<g id="edge11" class="edge">
<title>C&#45;&gt;D</title>
<path fill="none" stroke="deeppink" d="M614.78,-162.97C630.94,-155.77 656.29,-144.48 675.14,-136.07"/>
<polygon fill="deeppink" stroke="deeppink" points="684.33,-131.98 677.03,-140.16 679.76,-134.02 675.2,-136.05 675.2,-136.05 675.2,-136.05 679.76,-134.02 673.36,-131.94 684.33,-131.98 684.33,-131.98"/>
<text text-anchor="middle" x="647.5" y="-157.8" font-family="Times New Roman,serif" font-size="14.00">Δ1L</text>
</g>
<!-- C&#45;&gt;C -->
<g id="edge7" class="edge">
<title>C&#45;&gt;C</title>
<path fill="none" stroke="deeppink" d="M595.83,-188.15C595.5,-197.54 596.22,-206 598,-206 599.09,-206 599.78,-202.86 600.08,-198.28"/>
<polygon fill="deeppink" stroke="deeppink" points="600.17,-188.15 604.58,-198.19 600.13,-193.15 600.08,-198.15 600.08,-198.15 600.08,-198.15 600.13,-193.15 595.58,-198.11 600.17,-188.15 600.17,-188.15"/>
<text text-anchor="middle" x="598" y="-209.8" font-family="Times New Roman,serif" font-size="14.00">##R</text>
</g>
<!-- C&#45;&gt;C -->
<g id="edge8" class="edge">
<title>C&#45;&gt;C</title>
<path fill="none" stroke="deeppink" d="M594.42,-187.7C592.45,-205 593.64,-224 598,-224 601.51,-224 602.96,-211.69 602.37,-197.87"/>
<polygon fill="deeppink" stroke="deeppink" points="601.58,-187.7 606.84,-197.32 601.97,-192.68 602.35,-197.67 602.35,-197.67 602.35,-197.67 601.97,-192.68 597.87,-198.02 601.58,-187.7 601.58,-187.7"/>
<text text-anchor="middle" x="598" y="-227.8" font-family="Times New Roman,serif" font-size="14.00">XXR</text>
</g>
<!-- C&#45;&gt;C -->
<g id="edge9" class="edge">
<title>C&#45;&gt;C</title>
<path fill="none" stroke="deeppink" d="M593.51,-187.72C589.4,-212.11 590.9,-242 598,-242 604.16,-242 606.1,-219.53 603.83,-197.64"/>
<polygon fill="deeppink" stroke="deeppink" points="602.49,-187.72 608.29,-197.02 603.16,-192.67 603.83,-197.63 603.83,-197.63 603.83,-197.63 603.16,-192.67 599.37,-198.23 602.49,-187.72 602.49,-187.72"/>
<text text-anchor="middle" x="598" y="-245.8" font-family="Times New Roman,serif" font-size="14.00">11R</text>
</g>
<!-- C&#45;&gt;C -->
<g id="edge10" class="edge">
<title>C&#45;&gt;C</title>
<path fill="none" stroke="deeppink" d="M592.88,-187.67C586.35,-218.85 588.06,-260 598,-260 606.89,-260 609.19,-227.07 604.91,-197.81"/>
<polygon fill="deeppink" stroke="deeppink" points="603.12,-187.67 609.29,-196.74 603.99,-192.59 604.86,-197.52 604.86,-197.52 604.86,-197.52 603.99,-192.59 600.43,-198.3 603.12,-187.67 603.12,-187.67"/>
<text text-anchor="middle" x="598" y="-263.8" font-family="Times New Roman,serif" font-size="14.00">00R</text>
</g>
<!-- E&#45;&gt;H -->
<g id="edge18" class="edge">
<title>E&#45;&gt;H</title>
<path fill="none" stroke="deeppink" d="M512.22,-97.27C528.67,-82.66 556.97,-57.53 576.31,-40.36"/>
<polygon fill="deeppink" stroke="deeppink" points="583.99,-33.55 579.5,-43.55 580.25,-36.87 576.51,-40.19 576.51,-40.19 576.51,-40.19 580.25,-36.87 573.53,-36.82 583.99,-33.55 583.99,-33.55"/>
<text text-anchor="middle" x="548" y="-78.8" font-family="Times New Roman,serif" font-size="14.00">ΔΔR</text>
</g>
<!-- E&#45;&gt;C -->
<g id="edge16" class="edge">
<title>E&#45;&gt;C</title>
<path fill="none" stroke="deeppink" d="M506.45,-125.2C512.36,-136.19 521.67,-150.11 534,-158 544.55,-164.76 558,-167.89 569.77,-169.28"/>
<polygon fill="deeppink" stroke="deeppink" points="579.96,-170.13 569.62,-173.79 574.98,-169.71 569.99,-169.3 569.99,-169.3 569.99,-169.3 574.98,-169.71 570.36,-164.82 579.96,-170.13 579.96,-170.13"/>
<text text-anchor="middle" x="548" y="-171.8" font-family="Times New Roman,serif" font-size="14.00">1XR</text>
</g>
<!-- E&#45;&gt;C -->
<g id="edge17" class="edge">
<title>E&#45;&gt;C</title>
<path fill="none" stroke="deeppink" d="M514.93,-115.12C528.08,-120.51 546.95,-129.04 562,-139 567.2,-142.44 572.44,-146.61 577.22,-150.77"/>
<polygon fill="deeppink" stroke="deeppink" points="584.74,-157.6 574.31,-154.21 581.04,-154.24 577.34,-150.88 577.34,-150.88 577.34,-150.88 581.04,-154.24 580.36,-147.55 584.74,-157.6 584.74,-157.6"/>
<text text-anchor="middle" x="548" y="-142.8" font-family="Times New Roman,serif" font-size="14.00">0XR</text>
</g>
<!-- E&#45;&gt;E -->
<g id="edge15" class="edge">
<title>E&#45;&gt;E</title>
<path fill="none" stroke="deeppink" d="M489.64,-125.29C487.62,-135.39 490.41,-145 498,-145 502.86,-145 505.76,-141.06 506.68,-135.57"/>
<polygon fill="deeppink" stroke="deeppink" points="506.36,-125.29 511.17,-135.15 506.52,-130.29 506.67,-135.29 506.67,-135.29 506.67,-135.29 506.52,-130.29 502.17,-135.42 506.36,-125.29 506.36,-125.29"/>
<text text-anchor="middle" x="498" y="-148.8" font-family="Times New Roman,serif" font-size="14.00">XXL</text>
</g>
</g>
</svg>
