<?xml version="1.0" encoding="UTF-8" standalone="no"?>
<!DOCTYPE svg PUBLIC "-//W3C//DTD SVG 1.1//EN"
 "http://www.w3.org/Graphics/SVG/1.1/DTD/svg11.dtd">
<!-- Generated by graphviz version 2.50.0 (20211204.2007)
 -->
<!-- Title: Sequências binárias onde primeiro tem os 0´s e depois os 1&#39;s com a mesma quantidade Pages: 1 -->
<svg width="439pt" height="202pt"
 viewBox="0.00 0.00 439.00 202.00" xmlns="http://www.w3.org/2000/svg" xmlns:xlink="http://www.w3.org/1999/xlink">
<g id="graph0" class="graph" transform="scale(1 1) rotate(0) translate(4 198)">
<title>Sequências binárias onde primeiro tem os 0´s e depois os 1&#39;s com a mesma quantidade</title>
<polygon fill="white" stroke="transparent" points="-4,4 -4,-198 435,-198 435,4 -4,4"/>
<!-- Start -->
<g id="node1" class="node">
<title>Start</title>
</g>
<!-- A -->
<g id="node4" class="node">
<title>A</title>
<ellipse fill="none" stroke="deeppink" cx="109" cy="-52" rx="18" ry="18"/>
<text text-anchor="middle" x="109" y="-48.3" font-family="Times New Roman,serif" font-size="14.00">A</text>
</g>
<!-- Start&#45;&gt;A -->
<g id="edge1" class="edge">
<title>Start&#45;&gt;A</title>
<path fill="none" stroke="deeppink" d="M54.19,-52C62.65,-52 72.05,-52 80.6,-52"/>
<polygon fill="deeppink" stroke="deeppink" points="90.83,-52 80.83,-56.5 85.83,-52 80.83,-52 80.83,-52 80.83,-52 85.83,-52 80.83,-47.5 90.83,-52 90.83,-52"/>
</g>
<!-- C -->
<g id="node2" class="node">
<title>C</title>
<ellipse fill="none" stroke="deeppink" cx="316" cy="-79" rx="18" ry="18"/>
<text text-anchor="middle" x="316" y="-75.3" font-family="Times New Roman,serif" font-size="14.00">C</text>
</g>
<!-- D -->
<g id="node5" class="node">
<title>D</title>
<ellipse fill="none" stroke="deeppink" cx="413" cy="-18" rx="18" ry="18"/>
<text text-anchor="middle" x="413" y="-14.3" font-family="Times New Roman,serif" font-size="14.00">D</text>
</g>
<!-- C&#45;&gt;D -->
<g id="edge6" class="edge">
<title>C&#45;&gt;D</title>
<path fill="none" stroke="deeppink" d="M331.84,-69.47C347.04,-59.71 370.88,-44.4 388.62,-33.01"/>
<polygon fill="deeppink" stroke="deeppink" points="397.26,-27.46 391.28,-36.65 393.05,-30.17 388.85,-32.87 388.85,-32.87 388.85,-32.87 393.05,-30.17 386.41,-29.08 397.26,-27.46 397.26,-27.46"/>
<text text-anchor="middle" x="364.5" y="-58.8" font-family="Times New Roman,serif" font-size="14.00">1ΔL</text>
</g>
<!-- B -->
<g id="node3" class="node">
<title>B</title>
<ellipse fill="none" stroke="deeppink" cx="212" cy="-110" rx="18" ry="18"/>
<text text-anchor="middle" x="212" y="-106.3" font-family="Times New Roman,serif" font-size="14.00">B</text>
</g>
<!-- B&#45;&gt;C -->
<g id="edge5" class="edge">
<title>B&#45;&gt;C</title>
<path fill="none" stroke="deeppink" d="M229.39,-105.02C245.45,-100.14 270.18,-92.62 288.94,-86.92"/>
<polygon fill="deeppink" stroke="deeppink" points="298.65,-83.97 290.39,-91.18 293.87,-85.42 289.08,-86.88 289.08,-86.88 289.08,-86.88 293.87,-85.42 287.78,-82.57 298.65,-83.97 298.65,-83.97"/>
<text text-anchor="middle" x="266" y="-100.8" font-family="Times New Roman,serif" font-size="14.00">ΔΔL</text>
</g>
<!-- B&#45;&gt;B -->
<g id="edge3" class="edge">
<title>B&#45;&gt;B</title>
<path fill="none" stroke="deeppink" d="M207.36,-127.41C206.49,-137.09 208.04,-146 212,-146 214.48,-146 216.01,-142.52 216.6,-137.54"/>
<polygon fill="deeppink" stroke="deeppink" points="216.64,-127.41 221.1,-137.43 216.62,-132.41 216.6,-137.41 216.6,-137.41 216.6,-137.41 216.62,-132.41 212.1,-137.39 216.64,-127.41 216.64,-127.41"/>
<text text-anchor="middle" x="212" y="-149.8" font-family="Times New Roman,serif" font-size="14.00">00R</text>
</g>
<!-- B&#45;&gt;B -->
<g id="edge4" class="edge">
<title>B&#45;&gt;B</title>
<path fill="none" stroke="deeppink" d="M204.54,-126.59C199.86,-144.17 202.35,-164 212,-164 219.84,-164 222.95,-150.91 221.34,-136.57"/>
<polygon fill="deeppink" stroke="deeppink" points="219.46,-126.59 225.73,-135.58 220.38,-131.5 221.31,-136.41 221.31,-136.41 221.31,-136.41 220.38,-131.5 216.88,-137.24 219.46,-126.59 219.46,-126.59"/>
<text text-anchor="middle" x="212" y="-167.8" font-family="Times New Roman,serif" font-size="14.00">11R</text>
</g>
<!-- A&#45;&gt;B -->
<g id="edge2" class="edge">
<title>A&#45;&gt;B</title>
<path fill="none" stroke="deeppink" d="M124.9,-60.56C141.31,-69.98 167.93,-85.27 187.23,-96.35"/>
<polygon fill="deeppink" stroke="deeppink" points="196.04,-101.41 185.12,-100.33 191.7,-98.92 187.36,-96.43 187.36,-96.43 187.36,-96.43 191.7,-98.92 189.61,-92.52 196.04,-101.41 196.04,-101.41"/>
<text text-anchor="middle" x="158.5" y="-89.8" font-family="Times New Roman,serif" font-size="14.00">0ΔR</text>
</g>
<!-- H -->
<g id="node6" class="node">
<title>H</title>
<ellipse fill="none" stroke="deeppink" cx="212" cy="-52" rx="18" ry="18"/>
<ellipse fill="none" stroke="deeppink" cx="212" cy="-52" rx="22" ry="22"/>
<text text-anchor="middle" x="212" y="-48.3" font-family="Times New Roman,serif" font-size="14.00">H</text>
</g>
<!-- A&#45;&gt;H -->
<g id="edge10" class="edge">
<title>A&#45;&gt;H</title>
<path fill="none" stroke="deeppink" d="M127.13,-52C141.49,-52 162.35,-52 179.68,-52"/>
<polygon fill="deeppink" stroke="deeppink" points="189.92,-52 179.92,-56.5 184.92,-52 179.92,-52 179.92,-52 179.92,-52 184.92,-52 179.92,-47.5 189.92,-52 189.92,-52"/>
<text text-anchor="middle" x="158.5" y="-55.8" font-family="Times New Roman,serif" font-size="14.00">ΔΔS</text>
</g>
<!-- D&#45;&gt;A -->
<g id="edge9" class="edge">
<title>D&#45;&gt;A</title>
<path fill="none" stroke="deeppink" d="M395.08,-16.21C357.68,-12.68 265.3,-6.39 190,-21 170.81,-24.72 150.27,-32.78 134.8,-39.74"/>
<polygon fill="deeppink" stroke="deeppink" points="125.44,-44.11 132.6,-35.8 129.97,-41.99 134.51,-39.88 134.51,-39.88 134.51,-39.88 129.97,-41.99 136.41,-43.96 125.44,-44.11 125.44,-44.11"/>
<text text-anchor="middle" x="266" y="-17.8" font-family="Times New Roman,serif" font-size="14.00">ΔΔR</text>
</g>
<!-- D&#45;&gt;D -->
<g id="edge7" class="edge">
<title>D&#45;&gt;D</title>
<path fill="none" stroke="deeppink" d="M408.69,-35.78C407.95,-45.31 409.39,-54 413,-54 415.2,-54 416.59,-50.77 417.18,-46.1"/>
<polygon fill="deeppink" stroke="deeppink" points="417.31,-35.78 421.68,-45.84 417.25,-40.78 417.18,-45.78 417.18,-45.78 417.18,-45.78 417.25,-40.78 412.68,-45.72 417.31,-35.78 417.31,-35.78"/>
<text text-anchor="middle" x="413" y="-57.8" font-family="Times New Roman,serif" font-size="14.00">00L</text>
</g>
<!-- D&#45;&gt;D -->
<g id="edge8" class="edge">
<title>D&#45;&gt;D</title>
<path fill="none" stroke="deeppink" d="M406.04,-34.86C401.82,-52.38 404.14,-72 413,-72 420.2,-72 423.08,-59.05 421.64,-44.79"/>
<polygon fill="deeppink" stroke="deeppink" points="419.96,-34.86 426.07,-43.97 420.79,-39.79 421.63,-44.72 421.63,-44.72 421.63,-44.72 420.79,-39.79 417.19,-45.48 419.96,-34.86 419.96,-34.86"/>
<text text-anchor="middle" x="413" y="-75.8" font-family="Times New Roman,serif" font-size="14.00">11L</text>
</g>
</g>
</svg>
